<svg xmlns="http://www.w3.org/2000/svg" viewBox="0 0 773.06 501.25"><defs><style>.cls-1{fill:#0b86ac;}.cls-2{fill:#ffad9e;}.cls-3{fill:#c00;}.cls-4{fill:#fff;}.cls-5{fill:#900;}</style></defs><g id="Calque_2" data-name="Calque 2"><g id="Calque_1-2" data-name="Calque 1"><path class="cls-1" d="M224.67,365.26H245.9q18.35,0,24.68,1.59a27.49,27.49,0,0,1,15,9.28q5.76,7,5.76,17.63t-5.65,17.52q-5.65,6.95-15.58,9.31-7.26,1.74-27.12,1.73h-7.63V472H224.67Zm10.65,10.36v36.27l18.13.21q10.86,0,15.94-2a16.34,16.34,0,0,0,8-6.48,18.28,18.28,0,0,0,0-19.82,15.89,15.89,0,0,0-7.66-6.33q-4.74-1.87-15.54-1.88Z"/><path class="cls-1" d="M348.14,389.58q18.21,0,30.22,13.17a41.34,41.34,0,0,1,10.86,28.57,40.87,40.87,0,0,1-11.51,28.81q-11.5,12.35-29.57,12.34t-29.61-12.34a42.33,42.33,0,0,1-.61-57.31Q329.94,389.59,348.14,389.58Zm0,9.93a29.11,29.11,0,0,0-21.66,9.36,31.27,31.27,0,0,0-9.06,22.59,32.43,32.43,0,0,0,4.13,16,29.06,29.06,0,0,0,11.19,11.44,31.93,31.93,0,0,0,30.91,0,28.87,28.87,0,0,0,11.11-11.44,32.61,32.61,0,0,0,4.1-16,31.27,31.27,0,0,0-9.06-22.59A29.13,29.13,0,0,0,348.14,399.51Z"/><path class="cls-1" d="M406.56,391.6h10.22v36.84q0,13.53,1.44,18.56a20.65,20.65,0,0,0,8.28,11.48,25.25,25.25,0,0,0,14.67,4.21,24.61,24.61,0,0,0,14.39-4.1,20.94,20.94,0,0,0,8.14-10.8q1.57-4.53,1.58-19.35V391.6h10.36v38.78q0,16.33-3.85,24.57a29.13,29.13,0,0,1-11.48,12.88q-7.62,4.65-19.14,4.64t-19.28-4.64a28.66,28.66,0,0,1-11.51-13q-3.83-8.38-3.82-25.22Z"/><path class="cls-1" d="M496.5,363h10.22V472.4H496.5Z"/><path class="cls-1" d="M549.64,393.58a44.61,44.61,0,0,1,18.1-3.71A39,39,0,0,1,596.52,402a40,40,0,0,1,11.94,29.14,40.65,40.65,0,0,1-11.87,29.5A38.47,38.47,0,0,1,568,472.76a39,39,0,0,1-17.34-3.85,42.65,42.65,0,0,1-14.32-11.69v44H526.29V426.49a54.55,54.55,0,0,1,7.77-21.22A45.28,45.28,0,0,1,549.64,393.58Zm-4.93,15.21q-9.06,9.22-9.06,23a32.56,32.56,0,0,0,4,16.15,29.31,29.31,0,0,0,11.51,11.44A31.76,31.76,0,0,0,567,463.55a30.13,30.13,0,0,0,15.43-4.21A30.78,30.78,0,0,0,594,447.47a32.34,32.34,0,0,0,4.29-16,31.86,31.86,0,0,0-4.25-16,31.1,31.1,0,0,0-11.4-11.7,30.56,30.56,0,0,0-15.73-4.21A30,30,0,0,0,544.71,408.79Z"/><path class="cls-2" d="M301.41,224.43a131.26,131.26,0,0,1-12.7,45.73c-11.49,23.56-29,41.59-50.76,52.15-52.81,22.48-89.54,13.43-111,1.87-26.47-14.21-45.3-40.54-52-72.53,14.59,13.13,38.41,29.76,71.3,36.32,71.33,14.24,124.62-30.94,131.07-36.6A152.61,152.61,0,0,0,301.41,224.43Z"/><path class="cls-2" d="M222.74,125.16l-.19.44a2,2,0,0,0-.33.74c-9.09,20.38-22.59,37.65-39.05,50-1.63-.15-3.28-.37-4.95-.62a87.4,87.4,0,0,1-26-8.43c17.48-17.56,42.14-46.16,55-81.77,8.55-23.64,11.71-43.61,12.11-60.37,0-.71,0-1.41,0-2.1s0-1.4,0-2.08V19.71c0-.41,0-.8,0-1.2s0-.78,0-1.18,0-.79,0-1.17c0-1.56-.11-3.09-.2-4.59,0-.42-.06-.85-.08-1.26s0-.65-.07-1c-.05-.74-.11-1.47-.19-2.19l-.09-1.07a.77.77,0,0,0,0-.15,16.58,16.58,0,0,1,8.51,8.15,18.1,18.1,0,0,1,1.09,2.75A156.61,156.61,0,0,1,222.74,125.16Z"/><path class="cls-2" d="M91.05,299.16a328.76,328.76,0,0,0-20.79,102q-.15,3.87-.23,7.64c0-2.67.12-5.36.23-8.09A329,329,0,0,1,90.93,299,1.58,1.58,0,0,0,91.05,299.16Z"/><path class="cls-3" d="M301.45,223.91c0,.17,0,.34,0,.51h0a152.61,152.61,0,0,1-24.15,26.94c-6.45,5.66-59.74,50.84-131.07,36.6-32.89-6.56-56.71-23.19-71.3-36.32,0-.19-.07-.37-.11-.55-.17-.82-.33-1.65-.48-2.46a127.82,127.82,0,0,1-.6-42.5l.21-1.36,0-.13c.07-.44.14-.88.23-1.33s.17-1,.27-1.51c0-.05,0-.09,0-.14.07-.42.15-.84.25-1.26l0-.14a.78.78,0,0,1,0-.22v0c.11-.51.21-1,.32-1.54,6.47-30.32,23.21-57.36,48.42-78.21a289.87,289.87,0,0,0,30.12-28.61c24.91-27.61,35.77-46.53,40-69.81.07-.36.13-.74.2-1.11v-.09c.08-.41.15-.83.21-1.23v0a17.19,17.19,0,0,1,8.15-12.32,18.39,18.39,0,0,1,15.32-1.53c.34.12.68.25,1,.4.47,4.68.76,9.68.78,15,0,.68,0,1.37,0,2.08s0,1.39,0,2.1c-.4,16.76-3.56,36.73-12.11,60.37-12.89,35.61-37.55,64.21-55,81.77a1.71,1.71,0,0,1-.29-.16,90.24,90.24,0,0,1-10.69-6.41,2.26,2.26,0,1,0-2.58,3.71,93.08,93.08,0,0,0,38.89,15.75,89.23,89.23,0,0,0,14,1.09c26.47,0,47-11.63,55.44-17.26a2.26,2.26,0,0,0-2.52-3.76c-8.19,5.5-28.46,16.95-54.43,16.49a132.31,132.31,0,0,0,35.95-47.59,88.82,88.82,0,0,1,19.13,2.22c16.3,3.78,29.56,12.25,39.42,25.15,9,11.81,14.78,27.08,16.7,44.18A120.75,120.75,0,0,1,301.45,223.91Z"/><path class="cls-3" d="M91.05,299.16a328.76,328.76,0,0,0-20.79,102q-.15,3.87-.23,7.64c0-2.67.12-5.36.23-8.09A329,329,0,0,1,90.93,299,1.58,1.58,0,0,0,91.05,299.16Z"/><path class="cls-4" d="M305.65,200.19c-2-17.92-8.09-34-17.59-46.42C277.55,140,263.43,131,246.07,127a92.81,92.81,0,0,0-18.21-2.3,161.33,161.33,0,0,0,4.7-109.18,22.93,22.93,0,0,0-1.36-3.38A21.34,21.34,0,0,0,219.07,1.25c-.55-.18-1.09-.35-1.64-.5a23,23,0,0,0-17.49,2.42,21.66,21.66,0,0,0-10.31,15.52s0,0,0,.06l-.18,1.13,0,.08L189.24,21c-4.1,22.37-14.66,40.69-39,67.59a283.82,283.82,0,0,1-29.65,28.15c-26,21.51-43.27,49.44-49.95,80.74-.12.54-.23,1.08-.34,1.6,0,.14-.06.29-.08.44-.1.47-.19.94-.27,1.42v.08c-.1.5-.2,1-.28,1.5s-.16.9-.23,1.35l0,.13c-.08.48-.16.95-.23,1.43-.67,4.38-1.12,8.77-1.35,13.14A293.94,293.94,0,0,0,36,265.9c-41.46,76.87-39.71,156-30.94,208.88a2.27,2.27,0,0,0,2.23,1.9H182.2a2.27,2.27,0,0,0,1.84-3.59,153.22,153.22,0,0,1-24.51-53,155.69,155.69,0,0,1,1.85-80.4,116.63,116.63,0,0,0,14.48.93h.49c20,0,41.33-4.77,63.42-14.18l.09-.05c22.67-11,41-29.76,52.91-54.27a135,135,0,0,0,13.58-54.95A121.43,121.43,0,0,0,305.65,200.19Zm-150.51,221a157.31,157.31,0,0,0,22.73,51H9.24C.86,420-.36,342.88,40,268.05a288.91,288.91,0,0,1,27.5-41.8A131.24,131.24,0,0,0,69.07,246c.16,1,.35,2.09.53,3.12a119.57,119.57,0,0,0,20.47,48.7c.28.4.57.79.86,1.17a1.58,1.58,0,0,0,.12.15,101.8,101.8,0,0,0,65.8,39.91A160.38,160.38,0,0,0,155.14,421.17ZM301.45,223.91c0,.17,0,.34,0,.51h0a131.26,131.26,0,0,1-12.7,45.73c-11.49,23.56-29,41.59-50.76,52.15-52.81,22.48-89.54,13.43-111,1.87-26.47-14.21-45.3-40.54-52-72.53,0-.19-.07-.37-.11-.55-.17-.82-.33-1.65-.48-2.46a127.82,127.82,0,0,1-.6-42.5l.21-1.36,0-.13c.07-.44.14-.88.23-1.33s.17-1,.27-1.51c0-.05,0-.09,0-.14.07-.42.15-.84.25-1.26l0-.14a.78.78,0,0,1,0-.22v0c.11-.51.21-1,.32-1.54,6.47-30.32,23.21-57.36,48.42-78.21a289.87,289.87,0,0,0,30.12-28.61c24.91-27.61,35.77-46.53,40-69.81.07-.36.13-.74.2-1.11v-.09c.08-.41.15-.83.21-1.23v0a17.19,17.19,0,0,1,8.15-12.32,18.39,18.39,0,0,1,15.32-1.53c.34.12.68.25,1,.4l0,0a16.58,16.58,0,0,1,8.51,8.15,18.1,18.1,0,0,1,1.09,2.75,156.61,156.61,0,0,1-5.5,108.32l-.19.44a2,2,0,0,0-.33.74c-9.09,20.38-22.59,37.65-39.05,50-1.63-.15-3.28-.37-4.95-.62a87.4,87.4,0,0,1-26-8.43,1.71,1.71,0,0,1-.29-.16,90.24,90.24,0,0,1-10.69-6.41,2.26,2.26,0,1,0-2.58,3.71,93.08,93.08,0,0,0,38.89,15.75,89.23,89.23,0,0,0,14,1.09c26.47,0,47-11.63,55.44-17.26a2.26,2.26,0,0,0-2.52-3.76c-8.19,5.5-28.46,16.95-54.43,16.49a132.31,132.31,0,0,0,35.95-47.59,88.82,88.82,0,0,1,19.13,2.22c16.3,3.78,29.56,12.25,39.42,25.15,9,11.81,14.78,27.08,16.7,44.18A120.75,120.75,0,0,1,301.45,223.91Z"/><path class="cls-2" d="M177.87,472.15H75.1a331.85,331.85,0,0,1-4.73-41.54c-.07-1.28-.12-2.57-.17-3.87v-.16c0-1.18-.08-2.38-.11-3.58,0-1.49-.06-3-.08-4.48q0-2,0-4.08c0-1,0-2,0-3l0-2.27v-.36q.07-3.76.23-7.64a328.76,328.76,0,0,1,20.79-102,101.8,101.8,0,0,0,65.8,39.91,160.38,160.38,0,0,0-1.71,82.1A157.31,157.31,0,0,0,177.87,472.15Z"/><path class="cls-3" d="M70.37,430.61a331.85,331.85,0,0,0,4.73,41.54H9.24C.86,420-.36,342.88,40,268.05a288.91,288.91,0,0,1,27.5-41.8A131.24,131.24,0,0,0,69.07,246c.16,1,.35,2.09.53,3.12a119.57,119.57,0,0,0,20.47,48.7c.28.4.57.79.86,1.17a1.58,1.58,0,0,0,.12.15,328.76,328.76,0,0,0-20.79,102q-.15,3.87-.23,7.64v.36l0,2.27c0,1,0,2,0,3q0,2.06,0,4.08c0,1.51,0,3,.08,4.48,0,1.2.06,2.4.11,3.58v.16C70.25,428,70.3,429.33,70.37,430.61Z"/><ellipse class="cls-5" cx="234.16" cy="39.44" rx="9.67" ry="19.99"/><ellipse class="cls-5" cx="228.54" cy="98.67" rx="19.99" ry="9.67" transform="translate(74.88 294.52) rotate(-75.23)"/><ellipse class="cls-5" cx="202.83" cy="154.12" rx="19.99" ry="9.67" transform="translate(-32.06 252.72) rotate(-60)"/><ellipse class="cls-5" cx="285.16" cy="291.96" rx="19.99" ry="9.67" transform="translate(-122.93 287.15) rotate(-45)"/><ellipse class="cls-5" cx="229.14" cy="326.56" rx="19.99" ry="9.67" transform="translate(-115.51 125.65) rotate(-24.7)"/><ellipse class="cls-5" cx="105.12" cy="439.57" rx="9.67" ry="19.99"/><ellipse class="cls-5" cx="154.86" cy="439.02" rx="9.67" ry="19.99" transform="translate(-57.88 24.94) rotate(-7.76)"/><ellipse class="cls-5" cx="105.12" cy="372.61" rx="19.99" ry="9.67" transform="matrix(0.03, -1, 1, 0.03, -270.6, 465.97)"/><ellipse class="cls-5" cx="148.78" cy="378.14" rx="9.67" ry="19.99" transform="translate(-18.57 7.84) rotate(-2.84)"/><ellipse class="cls-5" cx="166.29" cy="336.59" rx="9.67" ry="19.99" transform="translate(-177.12 488.28) rotate(-87.54)"/><ellipse class="cls-5" cx="100.34" cy="314.86" rx="9.67" ry="19.99" transform="translate(-222.51 244.32) rotate(-60)"/><ellipse class="cls-5" cx="282.03" cy="261.72" rx="19.99" ry="9.67" transform="translate(-102.46 276.08) rotate(-45)"/><ellipse class="cls-5" cx="223.99" cy="297.09" rx="19.99" ry="9.67" transform="translate(-103.66 120.8) rotate(-24.7)"/><ellipse class="cls-5" cx="161.14" cy="305.09" rx="9.67" ry="19.99" transform="translate(-150.59 452.98) rotate(-87.54)"/><ellipse class="cls-5" cx="95.18" cy="281.96" rx="9.67" ry="19.99" transform="translate(-196.59 223.41) rotate(-60)"/><path class="cls-3" d="M729.13,271.91c-47.44-16.5-88.54,7-99.41,38.25-4.2,11.65-.87,18.75,2.66,22.66,6.68,7.39,18.62,8.47,25,6.89a18.93,18.93,0,0,0,5.08-2.18,12.23,12.23,0,0,0,1.45,4.83,8.94,8.94,0,0,0,8.08,4.49c4.69,0,9.5-2.5,14.5-7.49a11.06,11.06,0,0,0,1.07,2.66,9.79,9.79,0,0,0,8.9,4.83c11,0,19.57-13.3,27.87-26.17,1.18-1.83,2.33-3.62,3.46-5.33,2.22,4.69,4.63,10.71,4.91,14.88a8.81,8.81,0,0,1-2.21,6.83,6.06,6.06,0,0,1-3.58,2c-2.51,0-2.51-.67-2.53-1.17a2.7,2.7,0,0,1,.57-.76,4.13,4.13,0,0,0-5.18-6.44c-.61.49-3.64,3.12-3.64,7,0,4.42,2.83,9.58,10.78,9.58,3.24,0,6.92-1.78,9.62-4.66a17.12,17.12,0,0,0,4.41-13c-.64-9.61-8.7-23.78-9-24.37a4.13,4.13,0,0,0-6.91-.41c-2.54,3.45-5.12,7.45-7.61,11.31-6.43,10-14.43,22.39-20.92,22.39-1.34,0-1.6-.45-1.75-.72-1.06-1.83-.54-6.83,1.9-11.1,2-3.42,3.87-7,5.31-9.65l.87-1.64,1.38-2.64a5.56,5.56,0,0,0,.38-1.11,4,4,0,0,0-7.09-3.58c-.16.13-1.32,2.21-1.73,3l-.77,1.46c-8.79,16.35-17.26,26-23,26-.72,0-.81-.17-.93-.37-1-1.8-.37-7.18,2.07-11.43,3.85-6.72,8.08-14.07,8.08-14.07a3.42,3.42,0,0,0,.3-.75,4.11,4.11,0,0,0-7.41-3.46c-1.19,1.95-2.29,3.83-3.35,5.61-5.72,9.7-9.51,16.1-15.38,17.57-4.28,1.07-12.73.12-16.83-4.41-2.93-3.24-3.27-8.06-1-14.36,9.57-27.51,46.28-48,88.9-33.2,24.7,8.59,45.17,30.31,36.52,55.21-9.93,28.52-46.15,38.63-77.33,38.63H684a56.16,56.16,0,0,1-10.11-1l-.59-.12a14.7,14.7,0,0,0-9.85,1.34l-23.74,12.31c6.35-12.05,11.29-24.1,9-29.17a4.24,4.24,0,0,0-5.49-2.21,4,4,0,0,0-2.13,5.34c.65,3.68-7.4,20.54-15.32,34a4.12,4.12,0,0,0,3.55,6.23,4.2,4.2,0,0,0,1.91-.46l36-18.68a6.41,6.41,0,0,1,4.29-.59l.8.16A65.75,65.75,0,0,0,684,381.82c34.39.36,75.25-11,86.78-44.18C778.63,314.92,766.88,285.05,729.13,271.91Z"/><path class="cls-4" d="M183.18,176.37c-1.6-.15-3.22-.36-4.86-.61a85.8,85.8,0,0,1-25.56-8.27l-.29-.15A90.49,90.49,0,0,1,142,161a2.22,2.22,0,1,0-2.54,3.65,91.69,91.69,0,0,0,38.19,15.46,88.34,88.34,0,0,0,13.71,1.07c26,0,46.17-11.42,54.42-16.95a2.22,2.22,0,1,0-2.47-3.69c-8,5.4-27.93,16.63-53.43,16.18"/></g></g></svg>