<?xml version="1.0" encoding="utf-8"?>
<!-- Generator: Adobe Illustrator 25.4.1, SVG Export Plug-In . SVG Version: 6.00 Build 0)  -->
<svg version="1.1" id="Calque_1" xmlns="http://www.w3.org/2000/svg" xmlns:xlink="http://www.w3.org/1999/xlink" x="0px" y="0px"
	 viewBox="0 0 103.1 80.4" style="enable-background:new 0 0 103.1 80.4;" xml:space="preserve">
<style type="text/css">
	.st0{fill:#87CEE5;}
	.st1{fill:#0890B5;}
	.st2{fill:#CCBDA5;}
	.st3{fill:#AF9E7F;}
</style>
<g>
	<g>
		<path class="st0" d="M9.6,14V7.3l-2,3.5H5.4l-2-3.5V14H0V0.1h3.4l3.2,6.1l3.2-6.1h3.4V14H9.6z"/>
		<path class="st0" d="M23.6,14L23,11.9h-4.3L18,14h-3.5l5.1-13.9h2.6l5,13.9H23.6z M20.8,5.3L19.6,9H22L20.8,5.3z"/>
		<path class="st0" d="M35.6,14l-2.5-5.1H32V14h-3.4V0.1h5.6c3.1,0,4.8,2.2,4.8,4.5c0,1.9-1.2,3.1-2.2,3.6l3,5.8H35.6L35.6,14z
			 M33.9,3.2H32V6h1.9c0.9,0,1.5-0.7,1.5-1.4C35.4,3.8,34.9,3.2,33.9,3.2z"/>
		<path class="st0" d="M45.3,14.1c-2.2,0-3.9-0.4-5.3-1.8l2.2-2.2c0.7,0.7,2,1,3.1,1c1.4,0,2-0.5,2-1.2c0-0.3-0.1-0.6-0.3-0.8
			s-0.5-0.3-0.9-0.4l-1.7-0.2c-1.2-0.2-2.2-0.6-2.8-1.2c-0.6-0.7-0.9-1.6-0.9-2.8c0-2.5,1.9-4.4,5.1-4.4c2,0,3.5,0.5,4.7,1.7L48.3,4
			c-0.9-1-2.1-1-2.7-1c-1.2,0-1.7,0.7-1.7,1.3c0,0.2,0.1,0.5,0.3,0.6c0.2,0.2,0.5,0.4,0.9,0.4l1.7,0.2C48,5.7,49,6,49.6,6.7
			c0.8,0.7,1,1.8,1,3.1C50.7,12.5,48.2,14.1,45.3,14.1z"/>
		<path class="st0" d="M52.9,14V0.1h9.5v3.1h-6v2.3h5.2v3.1h-5.2V11h6v3H52.9z"/>
		<path class="st0" d="M64.9,14V0.1h3.4V14H64.9z"/>
		<path class="st0" d="M71.1,14V0.1h3.4v10.8h5.9V14H71.1z"/>
		<path class="st0" d="M82.4,14V0.1h3.4v10.8h5.9V14H82.4z"/>
		<path class="st0" d="M93.6,14V0.1h9.5v3.1h-6v2.3h5.2v3.1h-5.2V11h6v3H93.6z"/>
	</g>
	<g>
		<g>
			<path class="st0" d="M14.5,57.9h-6c-1.3,0-1.9-0.4-1.9-1.7V32.4c0-1.1-0.2-1.6-1.4-1.6H1.6c-1.2,0-1.6-1.4-1.6-1.4v-3.5
				c0-1.1,0.5-1.6,1.8-2.1l4.5-2.1c1-0.5,1.5-0.7,2.5-0.7h6c1.3,0,1.3,0.5,1.3,1.7v33.7C16,57.6,15.7,57.9,14.5,57.9z"/>
			<path class="st0" d="M32.9,58.6c-6.9,0-10.5-2-11.3-2.6c-0.8-0.7,0.2-8.2,2.2-7.2c1.5,0.8,5,2.2,7.9,2.2c3.7,0,5-1.8,5-4.1
				c0-2.1-1.8-3.9-4.7-5c-1.9-0.8-4.2-1.4-6.5-2.1c-1.9-0.5-2.6-1.7-2.6-3.6c0-1.1,0-13.7,0-13.7c0-1,0.8-1.5,1.4-1.5h19.4
				c0.5,0,1,0.4,1,1.2v5.3c0,0.9-0.5,1.1-2,1.1h-9.8c-1,0-1.7,0.2-1.7,1.1c0,0.8,0,2.6,0,3.3c0,0.5,0.4,0.7,1.3,1
				c2.2,0.7,4.1,1.1,5.7,1.8c4.2,1.8,7.7,5.1,7.7,11.5C45.8,54.2,40.8,58.6,32.9,58.6z"/>
		</g>
		<g>
			<path class="st1" d="M68,57.9h-6c-1.3,0-1.9-0.4-1.9-1.7V32.4c0-1.1-0.2-1.6-1.4-1.6H55c-1.2,0-1.6-1.4-1.6-1.4v-3.5
				c0-1.1,0.5-1.6,1.8-2.1l4.5-2.1c1.1-0.5,1.6-0.7,2.5-0.7h6c1.3,0,1.3,0.5,1.3,1.7v33.7C69.4,57.6,69.2,57.9,68,57.9z"/>
			<path class="st1" d="M89.9,58.6c-7.6,0-14.2-3.1-14.2-10.8V33.1c0-9,5.9-12.7,14.8-12.7c4.2,0,7.5,0.5,9.3,1.4c1,0.5-0.2,8.4-1,8
				c-2-0.8-5.3-1.6-8.3-1.6c-3.7,0-5.6,1.6-5.6,4.2v1.1c0,0.8,0.3,0.8,0.7,0.5c1.3-0.7,2.6-1.1,5.3-1.1c6.4,0,12.2,3.3,12.2,12.5
				C103.1,53.8,98.7,58.6,89.9,58.6z M89.6,40c-3,0-4.7,1.6-4.7,3.5v3.7c0,2.6,1.4,3.8,4.7,3.8c2.8,0,4.6-1.3,4.6-5.7
				C94.3,41.8,92.6,40,89.6,40z"/>
		</g>
		<g>
			<path class="st2" d="M53.6,43.8h-3.9c-0.2,0-0.4-0.3-0.4-0.9v-2.6c0-1.2,0.1-1.3,0.4-1.3h3.9c0.3,0,0.6,0,0.6,1v2.4
				C54.2,43.6,54.1,43.8,53.6,43.8z"/>
		</g>
	</g>
	<g>
		<path class="st3" d="M5.6,80.3v-4l-1.1,2.1H3.2l-1.1-2.1v4H0v-8.2h2l1.8,3.7l1.9-3.7h2v8.2H5.6z"/>
		<path class="st3" d="M14,80.3l-0.4-1.2H11l-0.4,1.2H8.5l3-8.2h1.6l3,8.2H14z M12.3,75.2l-0.8,2.2H13L12.3,75.2z"/>
		<path class="st3" d="M16.9,80.3v-8.2H19v8.2H16.9z"/>
		<path class="st3" d="M24.8,80.3l-1.4-3h-0.7v3h-2.1v-8.2h3.3c1.8,0,2.8,1.3,2.8,2.7c0,1.1-0.7,1.8-1.4,2.1l1.8,3.4H24.8z
			 M23.9,73.9h-1.1v1.7h1.1c0.5,0,0.9-0.4,0.9-0.8C24.7,74.3,24.4,73.9,23.9,73.9z"/>
		<path class="st3" d="M28.2,80.3v-8.2h2.1v8.2H28.2z"/>
		<path class="st3" d="M31.9,80.3v-8.2h5.6v1.8H34v1.4h3v1.8h-3v1.4h3.6v1.8L31.9,80.3L31.9,80.3z"/>
		<path class="st3" d="M44,80.4c-1.5,0-2.7-0.8-2.7-2.5c0-1.1,0.6-1.5,0.9-1.8c-0.3-0.2-0.8-0.8-0.8-1.6c0-1.6,1.3-2.4,2.7-2.4
			s2.7,0.9,2.7,2.4c0,0.9-0.5,1.4-0.8,1.6c0.3,0.2,0.9,0.8,0.9,1.8C46.7,79.6,45.5,80.4,44,80.4z M44,77c-0.5,0-0.8,0.4-0.8,0.8
			c0,0.5,0.4,0.8,0.8,0.8s0.8-0.4,0.8-0.8S44.4,77,44,77z M44,73.8c-0.5,0-0.8,0.4-0.8,0.8c0,0.5,0.4,0.8,0.8,0.8
			c0.5,0,0.8-0.4,0.8-0.8C44.7,74.1,44.4,73.8,44,73.8z"/>
		<path class="st3" d="M48.6,75c0,0.3,0.2,0.5,0.6,0.5s0.5-0.1,0.8-0.3l0.7,0.7c-0.4,0.4-0.8,0.6-1.4,0.6c-0.8,0-1.8-0.3-1.8-1.8
			c0-1.2,0.7-1.8,1.6-1.8c1.1,0,1.6,0.8,1.6,1.8v0.5L48.6,75L48.6,75z M49.5,74c-0.1-0.2-0.2-0.3-0.5-0.3s-0.4,0.2-0.5,0.3
			c-0.1,0.1-0.1,0.2-0.1,0.3h1.1C49.6,74.2,49.6,74.1,49.5,74z"/>
		<path class="st3" d="M56.7,80.4c-1.3,0-2.3-0.2-3.1-1.1l1.3-1.3c0.5,0.5,1.2,0.6,1.8,0.6c0.8,0,1.2-0.3,1.2-0.8
			c0-0.2-0.1-0.4-0.2-0.5c-0.1-0.1-0.3-0.2-0.5-0.2l-1-0.2c-0.8-0.1-1.3-0.4-1.7-0.8S54,75.2,54,74.4c0-1.5,1.1-2.6,3-2.6
			c1.2,0,2.1,0.3,2.8,1l-1.3,1.3c-0.5-0.5-1.2-0.5-1.6-0.5c-0.7,0-1,0.4-1,0.8c0,0.1,0,0.2,0.2,0.4c0.1,0.1,0.3,0.2,0.5,0.2l1,0.2
			c0.8,0.1,1.3,0.3,1.6,0.7c0.5,0.5,0.6,1.1,0.6,1.8C59.9,79.5,58.5,80.4,56.7,80.4z"/>
		<path class="st3" d="M61.3,80.3v-8.2h5.6v1.8h-3.6v1.4h3v1.8h-3v1.4h3.6v1.8L61.3,80.3L61.3,80.3z"/>
		<path class="st3" d="M71.2,80.4c-1,0-1.7-0.3-2.3-0.9c-0.8-0.8-0.8-2.1-0.8-3.3s0-2.4,0.8-3.3c0.6-0.6,1.4-0.9,2.3-0.9
			c1.6,0,2.8,0.8,3.1,2.7h-2.1c-0.2-0.5-0.4-0.9-1.1-0.9c-0.4,0-0.7,0.2-0.8,0.4c-0.2,0.2-0.3,0.5-0.3,2.1s0.2,1.8,0.3,2.1
			c0.2,0.2,0.5,0.4,0.8,0.4c0.7,0,0.9-0.4,1.1-0.9h2.1C74,79.6,72.7,80.4,71.2,80.4z"/>
		<path class="st3" d="M78.7,73.9v6.5h-2.1v-6.5h-2.1v-1.8h6.1v1.8H78.7z"/>
		<path class="st3" d="M81.9,80.3v-8.2h5.6v1.8H84v1.4h3v1.8h-3v1.4h3.6v1.8L81.9,80.3L81.9,80.3z"/>
		<path class="st3" d="M92,80.4c-1.8,0-3.1-1.1-3.1-3v-5.3H91v5.3c0,0.8,0.4,1.2,1.1,1.2s1.1-0.5,1.1-1.2v-5.3h2.1v5.3
			C95.1,79.3,93.7,80.4,92,80.4z"/>
		<path class="st3" d="M100.8,80.3l-1.4-3h-0.7v3h-2.1v-8.2h3.3c1.8,0,2.8,1.3,2.8,2.7c0,1.1-0.7,1.8-1.4,2.1l1.8,3.4H100.8z
			 M99.9,73.9h-1.1v1.7h1.1c0.5,0,0.9-0.4,0.9-0.8C100.7,74.3,100.4,73.9,99.9,73.9z"/>
	</g>
	<rect y="63.2" class="st2" width="103.1" height="4.2"/>
</g>
</svg>
