<svg xmlns="http://www.w3.org/2000/svg" viewBox="0 0 111.61 127.84"><defs><style>.cls-1{fill:none;}.cls-2{fill:#43576d;}.cls-3{fill:#929eaa;}.cls-4{fill:#fff;}.cls-5{fill:#021d3b;opacity:0.49;}</style></defs><g id="Calque_2" data-name="Calque 2"><g id="Calque_1-2" data-name="Calque 1"><path class="cls-1" d="M111.61.56V8.05l-4.92,0c-1.65,0-3.27-.06-4.84-.1-3.13-.07-6.06-.3-8.57-.41S88.86,7.08,87.39,7h-.3L84.5,6.73h0l-.64-.06c-1-.09-2.23-.17-3.59-.21a27.19,27.19,0,0,0-4.36.2,10.32,10.32,0,0,0-4.24,1.52,12.2,12.2,0,0,0-1.93,1.68c-.32.32-.61.71-.92,1.08l-.11.12,0,0v0l0,0,0,0-.2.3-.24.34a3.18,3.18,0,0,0-.18.31c-.08.16-.17.33-.27.49s-.17.4-.26.6a8.07,8.07,0,0,0-.41,1.29,8.26,8.26,0,0,0-.19,2.77,9,9,0,0,0,2.24,5.26,8.8,8.8,0,0,0,2.31,1.86,7,7,0,0,0,2.69.82,7.41,7.41,0,0,0,5.37-1.6,4.69,4.69,0,0,0,.53-.47,4.61,4.61,0,0,0,.48-.51l.23-.27,0,0s0-.06,0-.06l.11-.17.23-.34.16-.28A6.87,6.87,0,0,0,82.13,19a5.62,5.62,0,0,0-1.41-4.54A4.34,4.34,0,0,0,77,13a3.21,3.21,0,0,0-2.56,1.61,4.34,4.34,0,0,0-.5,2.06v0h-1A5.1,5.1,0,0,1,73.35,14a4.59,4.59,0,0,1,3.42-2.54A6.09,6.09,0,0,1,82,13.1a7.71,7.71,0,0,1,2.43,6,9.26,9.26,0,0,1-.87,3.56l-.22.45-.21.35-.1.18-.08.14-.07.1-.28.38A5.33,5.33,0,0,1,82,25a4.92,4.92,0,0,1-.67.7,10.62,10.62,0,0,1-11.58,1.91,12.53,12.53,0,0,1-3.46-2.37,13.51,13.51,0,0,1-3.93-11.62,14,14,0,0,1,.47-2c.12-.34.21-.66.35-1l.47-1a3.35,3.35,0,0,1,.22-.43l.21-.37.2-.36,0,0,.1-.16.06-.1.13-.19c.36-.51.69-1,1.1-1.51a16.9,16.9,0,0,1,2.65-2.7A16.22,16.22,0,0,1,74.74.78,31.37,31.37,0,0,1,80.15.09C81.71,0,83,0,84.13,0h.51s.8,0,1.93,0h.91c.12,0,.24,0,.36,0,1.41.07,3.25.18,5.44.22,2.51,0,5.44.17,8.57.19Z"/><path class="cls-1" d="M106.66,11.26c-1.14,0-2.3,0-3.44-.07l-1.44,0c-2.1,0-4.12-.16-5.91-.26l-2.74-.15c-1.68-.07-3.11-.23-4.27-.35-.59-.07-1.13-.13-1.62-.17l-.41,0-3.65-.33a9,9,0,0,1,1,.83,10.88,10.88,0,0,1,3.48,8.58,12.27,12.27,0,0,1-1.17,4.78l-.29.59-.32.56a2.3,2.3,0,0,1-.24.4l-.4.57a10.81,10.81,0,0,1-.81,1,9.34,9.34,0,0,1-.92.95A14.39,14.39,0,0,1,82,29.33V50.41c-2.09,0-4.51.13-7.1.16l-8.33.06-8.34-.06c-2.66,0-5.14-.12-7.27-.16-1.85,0-3.41-.13-4.61-.18-.1,0-.2,0-.3,0h-.77c-1,0-1.64,0-1.64,0h-.43c-.93,0-2,0-3.38.07a26.86,26.86,0,0,0-4.58.59,13.73,13.73,0,0,0-5.41,2.5,14.32,14.32,0,0,0-2.25,2.29c-.35.41-.63.85-.93,1.28l-.11.16-.05.09-.09.13,0,0-.17.3-.18.31c0,.1-.12.21-.19.37l-.4.87c-.11.29-.19.56-.29.85a11.25,11.25,0,0,0-.36,5.3,11.3,11.3,0,0,0,3.29,6.28,10.74,10.74,0,0,0,2.94,2,9.13,9.13,0,0,0,3.54.79A8.94,8.94,0,0,0,40.88,72a6.45,6.45,0,0,0,.58-.59,6.12,6.12,0,0,0,.5-.64l.24-.33,0-.08a.7.7,0,0,0,.08-.12l.08-.15.17-.3.19-.38a7.74,7.74,0,0,0,.74-3,6.51,6.51,0,0,0-2.06-5.12A5.16,5.16,0,0,0,37,59.9a3.87,3.87,0,0,0-2.9,2.15,4.4,4.4,0,0,0-.39,2.24h.89v0A3.76,3.76,0,0,1,35,62.52a2.77,2.77,0,0,1,2.17-1.36,3.69,3.69,0,0,1,3.16,1.23,4.78,4.78,0,0,1,1.19,3.85,5.86,5.86,0,0,1-.69,2.13l-.14.23-.19.29-.1.15s-.06.09,0,0l0,.06-.2.23a2.78,2.78,0,0,1-.41.43,2.86,2.86,0,0,1-.45.4,6.28,6.28,0,0,1-4.55,1.36,5.91,5.91,0,0,1-2.27-.7,7.1,7.1,0,0,1-2-1.57,7.78,7.78,0,0,1-1.91-4.46,7.36,7.36,0,0,1,.17-2.35,6.29,6.29,0,0,1,.34-1.09c.08-.17.15-.36.23-.51s.16-.28.23-.42a1.6,1.6,0,0,1,.15-.26l.2-.29.18-.27h0l0,0,0,0,.09-.11c.27-.31.51-.64.79-.91a9.28,9.28,0,0,1,1.63-1.43,8.77,8.77,0,0,1,3.59-1.28A22.24,22.24,0,0,1,40,55.64c1.16,0,2.2.1,3,.17l.54,0h0l2.2.2h0l.22,0c1.24.08,2.86.34,5,.44s4.61.28,7.27.34c1.33,0,2.71.09,4.1.09l4.24,0,4.23,0c1.4,0,2.77-.07,4.1-.1s2.62-.11,3.84-.17L82,56.52v2.75l-4.15.22c-.94,0-1.91.1-2.91.11l-1.37,0c-.9,0-1.82,0-2.75.06l-4.23,0-4.28,0c-1,0-2,0-2.92-.05l-1.22,0c-1.78,0-3.49-.13-5-.22l-2.32-.12c-1.43-.07-2.64-.2-3.62-.31l-1.37-.14a2.06,2.06,0,0,1-.35,0l-3.1-.28a7.48,7.48,0,0,1,.87.71,9.25,9.25,0,0,1,2.95,7.27,10.54,10.54,0,0,1-1,4l-.25.51-.27.47a3.28,3.28,0,0,1-.2.34l-.35.48a7,7,0,0,1-.68.86,8.54,8.54,0,0,1-.78.8,10.43,10.43,0,0,1-1.27,1V90l-5.47,0-7.16,0c-2.28,0-4.41-.1-6.24-.14-1.59,0-2.93-.11-4-.16l-.26,0h-.66c-.82,0-1.41,0-1.41,0h-.37c-.8,0-1.75,0-2.89.07a23.42,23.42,0,0,0-3.94.5,12,12,0,0,0-4.65,2.15,11.92,11.92,0,0,0-1.92,2,12.34,12.34,0,0,0-.8,1.1l-.1.14,0,.07-.07.11,0,0-.15.27-.15.26a2.24,2.24,0,0,0-.17.32L.7,97.4c-.1.24-.17.48-.25.72a9.21,9.21,0,0,0-.34,1.49A9.57,9.57,0,0,0,0,101a10.24,10.24,0,0,0,.14,1.66A9.7,9.7,0,0,0,3,108.07a9.23,9.23,0,0,0,2.52,1.72,7.84,7.84,0,0,0,3,.68,7.66,7.66,0,0,0,5.38-2.07,4.7,4.7,0,0,0,.49-.51,3.93,3.93,0,0,0,.44-.55l.2-.28.05-.07a.44.44,0,0,0,.06-.1l.08-.13.14-.26.16-.32a6.67,6.67,0,0,0,.64-2.59A5.57,5.57,0,0,0,14.4,99.2,4.39,4.39,0,0,0,10.59,98,3.33,3.33,0,0,0,8.1,99.87a3.86,3.86,0,0,0-.34,1.93h.77v0a3.11,3.11,0,0,1,.36-1.5,2.37,2.37,0,0,1,1.87-1.17,3.17,3.17,0,0,1,2.7,1.06,4.1,4.1,0,0,1,1,3.3,4.88,4.88,0,0,1-.6,1.83l-.11.2-.17.25-.09.12,0,0h0l0,0-.16.2a2.53,2.53,0,0,1-.36.37,2.5,2.5,0,0,1-.38.35A5.37,5.37,0,0,1,8.65,108a5.22,5.22,0,0,1-1.95-.59A6.53,6.53,0,0,1,5,106.07a6.65,6.65,0,0,1-1.63-3.83,6.21,6.21,0,0,1,.14-2,5.93,5.93,0,0,1,.3-.93A4.48,4.48,0,0,1,4,98.85c.07-.12.14-.24.2-.36a1.51,1.51,0,0,1,.13-.22L4.51,98l.16-.23h0l0,0v0h0l.09-.09a8.7,8.7,0,0,1,.67-.79,7.79,7.79,0,0,1,1.4-1.22A7.58,7.58,0,0,1,10,94.51a19.2,19.2,0,0,1,3.17-.14c1,0,1.89.09,2.62.15l.47,0,1.89.17h.22c1.06.07,2.45.3,4.28.38s4,.24,6.24.29c1.15,0,2.32.08,3.52.08l3.64,0,3.63,0,1.84,0v2.36l-1.82,0-3.63,0-3.68,0c-.83,0-1.67,0-2.5,0l-1.05,0c-1.53,0-3-.11-4.3-.19l-2-.11c-1.23,0-2.27-.16-3.11-.26-.44,0-.83-.09-1.18-.11l-.3,0-2.66-.24a7,7,0,0,1,.75.6,7.92,7.92,0,0,1,2.53,6.24,9,9,0,0,1-.85,3.49l-.22.43-.23.4a1.6,1.6,0,0,1-.17.29l-.29.42a7.58,7.58,0,0,1-.59.73,7.44,7.44,0,0,1-.67.69,10.14,10.14,0,0,1-1.09.87v16.83H21V111.76h3.15v16.08h5.74V111.76h3.15v16.08h5.74V111.76h2.66v16.08h7.7V75.9h3.67v51.94h6.69V75.9H63.2v51.94h6.69V75.9h3.66v51.94h6.69V75.9H82v51.94h9.08V30.36h4.32v97.48h7.89V30.36h4.33v97.48h4V11.3Z"/><path class="cls-2" d="M43.15,90c2.2,0,4.25-.09,6-.13v5.24c-.85,0-1.76.08-2.73.14s-2.15.12-3.29.14l-1.68,0-1.84,0-3.63,0-3.64,0c-1.2,0-2.37,0-3.52-.08-2.28,0-4.41-.21-6.24-.29s-3.22-.31-4.28-.38H18.1l-1.89-.17-.47,0c-.73-.06-1.62-.12-2.62-.15a19.2,19.2,0,0,0-3.17.14,7.58,7.58,0,0,0-3.08,1.11,7.79,7.79,0,0,0-1.4,1.22,8.7,8.7,0,0,0-.67.79l-.09.09h0v0l0,0h0L4.51,98l-.17.25a1.51,1.51,0,0,0-.13.22c-.06.12-.13.24-.2.36a4.48,4.48,0,0,0-.19.44,5.93,5.93,0,0,0-.3.93,6.21,6.21,0,0,0-.14,2A6.65,6.65,0,0,0,5,106.07a6.53,6.53,0,0,0,1.69,1.36,5.22,5.22,0,0,0,2,.59,5.37,5.37,0,0,0,3.91-1.16,2.5,2.5,0,0,0,.38-.35,2.53,2.53,0,0,0,.36-.37l.16-.2,0,0h0l0,0,.09-.12.17-.25.11-.2a4.88,4.88,0,0,0,.6-1.83,4.1,4.1,0,0,0-1-3.3,3.17,3.17,0,0,0-2.7-1.06,2.37,2.37,0,0,0-1.87,1.17,3.11,3.11,0,0,0-.36,1.5v0H7.76a3.86,3.86,0,0,1,.34-1.93A3.33,3.33,0,0,1,10.59,98,4.39,4.39,0,0,1,14.4,99.2a5.57,5.57,0,0,1,1.77,4.39,6.67,6.67,0,0,1-.64,2.59l-.16.32-.14.26-.08.13a.44.44,0,0,1-.06.1l-.05.07-.2.28a3.93,3.93,0,0,1-.44.55,4.7,4.7,0,0,1-.49.51,7.66,7.66,0,0,1-5.38,2.07,7.84,7.84,0,0,1-3-.68A9.23,9.23,0,0,1,3,108.07a9.7,9.7,0,0,1-2.83-5.39A10.24,10.24,0,0,1,0,101a9.57,9.57,0,0,1,.11-1.41,9.21,9.21,0,0,1,.34-1.49c.08-.24.15-.48.25-.72L1,96.65a2.24,2.24,0,0,1,.17-.32l.15-.26.15-.27,0,0,.07-.11,0-.07.1-.14a12.34,12.34,0,0,1,.8-1.1,11.92,11.92,0,0,1,1.92-2,12,12,0,0,1,4.65-2.15,23.42,23.42,0,0,1,3.94-.5c1.14-.06,2.09-.07,2.89-.07h.37s.59,0,1.41,0h.66l.26,0c1,0,2.37.13,4,.16,1.83,0,4,.13,6.24.14l7.16,0,5.47,0Z"/><path class="cls-2" d="M59.53,89.78v4.58h-.77c-1,0-1.89.09-2.62.15L55,94.63c-.28,0-.67.1-1.16.15l-1,.08V89.75l.34,0,.12,0h.2l2.44,0c.8,0,1.76,0,2.89.07Z"/><path class="cls-2" d="M57.48,99.2a4.57,4.57,0,0,1,2.05-1.12v1.28a3.14,3.14,0,0,0-1.11.81,4.1,4.1,0,0,0-1,3.3,5.06,5.06,0,0,0,.6,1.83l.12.2.17.25.08.12,0,0,0,0,.16.2a9.43,9.43,0,0,0,.74.72l.21.16v2.51A7.32,7.32,0,0,1,58,108.4a4.7,4.7,0,0,1-.49-.51,3.93,3.93,0,0,1-.44-.55l-.2-.28-.05-.07a.44.44,0,0,1-.06-.1l-.08-.13-.14-.26-.16-.32a6.67,6.67,0,0,1-.64-2.59A5.61,5.61,0,0,1,57.48,99.2Z"/><path class="cls-2" d="M63.35,101.72a3.29,3.29,0,0,0-.15-.94V99a2.9,2.9,0,0,1,.59.85,3.79,3.79,0,0,1,.33,1.85Z"/><path class="cls-2" d="M69.89,95.08V107a9.48,9.48,0,0,1-1,1.11,9.23,9.23,0,0,1-2.52,1.72,7.84,7.84,0,0,1-3,.68H63.2V108h0a5.27,5.27,0,0,0,2-.59,6.57,6.57,0,0,0,3.31-5.19,6.2,6.2,0,0,0-.44-2.95,4.48,4.48,0,0,0-.19-.44c-.07-.12-.13-.24-.19-.36a1.07,1.07,0,0,0-.14-.22L67.37,98l-.16-.24h0l0,0-.08-.1c-.23-.27-.44-.56-.68-.79A8.1,8.1,0,0,0,65,95.62c-.22-.14-.44-.26-.67-.38L64,95.09,63.67,95l-.42-.14,0,0V90.34a11.73,11.73,0,0,1,4.22,2,12.4,12.4,0,0,1,1.93,2C69.54,94.58,69.72,94.83,69.89,95.08Z"/><path class="cls-2" d="M45.69,97.67c-.81,0-1.65.09-2.5.1L42,97.8l-.54,0-1.82,0-3.63,0-3.68,0c-.83,0-1.67,0-2.5,0l-1.05,0c-1.53,0-3-.11-4.3-.19l-2-.11c-1.23,0-2.27-.16-3.11-.26-.44,0-.83-.09-1.18-.11l-.3,0-2.66-.24a7,7,0,0,1,.75.6,7.92,7.92,0,0,1,2.53,6.24,9,9,0,0,1-.85,3.49l-.22.43-.23.4a1.6,1.6,0,0,1-.17.29l-.29.42a7.58,7.58,0,0,1-.59.73,7.44,7.44,0,0,1-.67.69,10.14,10.14,0,0,1-1.09.87v16.83H21V111.76h3.15v16.08h5.74V111.76h3.15v16.08h5.74V111.76H42v16.08h5.75V111.76h1.46V97.49Zm10.68,12.47a6.31,6.31,0,0,1-.66-.69,6.22,6.22,0,0,1-.63-.79l-.22-.3a3.54,3.54,0,0,1-.21-.34l-.23-.41-.2-.4a9.31,9.31,0,0,1-.87-3.52,7.93,7.93,0,0,1,2.54-6.24,6.06,6.06,0,0,1,.74-.6L55.28,97c-.4.06-.82.12-1.25.16l-1.19.09v30.62h4.62V111A10.14,10.14,0,0,1,56.37,110.14Z"/><path class="cls-2" d="M4.7,97.73h0s0,0,0,0Z"/><path class="cls-3" d="M89.84,50.16h1.28v5.56l-1.05.08-1.36.13c-.33.05-.78.12-1.36.17-1.24.09-3,.29-5.14.4H82l-3.26.16c-1.22.06-2.51.15-3.84.17s-2.7.09-4.1.1l-4.23,0-4.24,0c-1.39,0-2.77-.06-4.1-.09-2.66-.06-5.14-.25-7.27-.34s-3.75-.36-5-.44l-.22,0h0l-2.2-.2h0l-.54,0c-.85-.07-1.89-.14-3-.17a22.24,22.24,0,0,0-3.69.17,8.77,8.77,0,0,0-3.59,1.28,9.28,9.28,0,0,0-1.63,1.43c-.28.27-.52.6-.79.91l-.09.11,0,0,0,0h0l-.18.27-.2.29a1.6,1.6,0,0,0-.15.26c-.07.14-.15.28-.23.42s-.15.34-.23.51a6.29,6.29,0,0,0-.34,1.09,7.36,7.36,0,0,0-.17,2.35,7.78,7.78,0,0,0,1.91,4.46,7.1,7.1,0,0,0,2,1.57,5.91,5.91,0,0,0,2.27.7,6.28,6.28,0,0,0,4.55-1.36,2.86,2.86,0,0,0,.45-.4,2.78,2.78,0,0,0,.41-.43l.2-.23,0-.06c0,.07,0,0,0,0l.1-.15.19-.29.14-.23a5.86,5.86,0,0,0,.69-2.13,4.78,4.78,0,0,0-1.19-3.85,3.69,3.69,0,0,0-3.16-1.23A2.77,2.77,0,0,0,35,62.52a3.76,3.76,0,0,0-.42,1.75v0h-.89a4.4,4.4,0,0,1,.39-2.24A3.87,3.87,0,0,1,37,59.9a5.16,5.16,0,0,1,4.44,1.36,6.51,6.51,0,0,1,2.06,5.12,7.74,7.74,0,0,1-.74,3l-.19.38-.17.3-.08.15a.7.7,0,0,1-.08.12l0,.08-.24.33a6.12,6.12,0,0,1-.5.64,6.45,6.45,0,0,1-.58.59,8.94,8.94,0,0,1-6.27,2.41,9.13,9.13,0,0,1-3.54-.79,10.74,10.74,0,0,1-2.94-2,11.45,11.45,0,0,1-3.33-9.85A11.15,11.15,0,0,1,25.2,60c.1-.29.18-.56.29-.85l.4-.87c.07-.16.14-.27.19-.37l.18-.31.17-.3,0,0,.09-.13.05-.09.11-.16c.3-.43.58-.87.93-1.28a14.32,14.32,0,0,1,2.25-2.29,13.73,13.73,0,0,1,5.41-2.5,26.86,26.86,0,0,1,4.58-.59c1.33-.07,2.45-.08,3.38-.07h.43s.68,0,1.64,0h.77c.1,0,.2,0,.3,0,1.2.05,2.76.14,4.61.18,2.13,0,4.61.15,7.27.16l8.34.06,8.33-.06c2.59,0,5-.12,7.1-.16h.17c1.75,0,3.24-.12,4.41-.18l.14,0,.23,0Z"/><path class="cls-3" d="M103.33,53.43v6.72l-.18-.26-.2-.3,0,0h0l-.1-.12c-.26-.31-.51-.64-.78-.91a10.06,10.06,0,0,0-1.63-1.43,8.86,8.86,0,0,0-3.6-1.28c-.46-.07-.91-.11-1.37-.14V50.41a23.31,23.31,0,0,1,2.35.41,13.73,13.73,0,0,1,5.41,2.5Z"/><path class="cls-3" d="M89.57,66.38a6.63,6.63,0,0,1,1.55-4.59v9l-.23-.33-.06-.08c-.08-.11,0-.07-.07-.12l-.09-.15-.17-.3-.19-.38A7.92,7.92,0,0,1,89.57,66.38Z"/><path class="cls-3" d="M95.88,61.16a2.16,2.16,0,0,0-.44,0V59.83h.23a2.57,2.57,0,0,1,.4.06A3.91,3.91,0,0,1,99,62.05a4.53,4.53,0,0,1,.39,2.14h-.9a3.67,3.67,0,0,0-.42-1.67A2.77,2.77,0,0,0,95.88,61.16Z"/><path class="cls-3" d="M103.33,68.24v4.62a8.56,8.56,0,0,1-1.32.74,9,9,0,0,1-6.57.32V71.13a6.19,6.19,0,0,0,2.89.41,6,6,0,0,0,2.28-.7,7.41,7.41,0,0,0,2-1.57A8.55,8.55,0,0,0,103.33,68.24Z"/><path class="cls-3" d="M108.24,65.31a10.06,10.06,0,0,1-.58,2.15v-8.1c.08.22.15.43.22.65a11.15,11.15,0,0,1,.4,1.73A11,11,0,0,1,108.24,65.31Z"/><path class="cls-3" d="M68.36,100.22a5.93,5.93,0,0,0-.3-.93,4.48,4.48,0,0,0-.19-.44c-.07-.12-.13-.24-.19-.36a1.07,1.07,0,0,0-.14-.22L67.37,98l-.16-.24h0l0,0-.08-.1c-.23-.27-.44-.56-.68-.79A8.1,8.1,0,0,0,65,95.62c-.22-.14-.44-.26-.67-.38L64,95.09,63.67,95l-.42-.14,0,0V108h0a5.27,5.27,0,0,0,2-.59,6.57,6.57,0,0,0,3.31-5.19A6,6,0,0,0,68.36,100.22Zm0,0a5.93,5.93,0,0,0-.3-.93,4.48,4.48,0,0,0-.19-.44c-.07-.12-.13-.24-.19-.36a1.07,1.07,0,0,0-.14-.22L67.37,98l-.16-.24h0l0,0-.08-.1c-.23-.27-.44-.56-.68-.79A8.1,8.1,0,0,0,65,95.62c-.22-.14-.44-.26-.67-.38L64,95.09,63.67,95l-.42-.14,0,0V108h0a5.27,5.27,0,0,0,2-.59,6.57,6.57,0,0,0,3.31-5.19A6,6,0,0,0,68.36,100.22Zm0,0a5.93,5.93,0,0,0-.3-.93,4.48,4.48,0,0,0-.19-.44c-.07-.12-.13-.24-.19-.36a1.07,1.07,0,0,0-.14-.22L67.37,98l-.16-.24h0l0,0-.08-.1c-.23-.27-.44-.56-.68-.79A8.1,8.1,0,0,0,65,95.62c-.22-.14-.44-.26-.67-.38L64,95.09,63.67,95l-.42-.14,0,0V108h0a5.27,5.27,0,0,0,2-.59,6.57,6.57,0,0,0,3.31-5.19A6,6,0,0,0,68.36,100.22Zm0,0a5.93,5.93,0,0,0-.3-.93,4.48,4.48,0,0,0-.19-.44c-.07-.12-.13-.24-.19-.36a1.07,1.07,0,0,0-.14-.22L67.37,98l-.16-.24h0l0,0-.08-.1c-.23-.27-.44-.56-.68-.79A8.1,8.1,0,0,0,65,95.62c-.22-.14-.44-.26-.67-.38L64,95.09,63.67,95l-.42-.14,0,0V108h0a5.27,5.27,0,0,0,2-.59,6.57,6.57,0,0,0,3.31-5.19A6,6,0,0,0,68.36,100.22Zm0,0a5.93,5.93,0,0,0-.3-.93,4.48,4.48,0,0,0-.19-.44c-.07-.12-.13-.24-.19-.36a1.07,1.07,0,0,0-.14-.22L67.37,98l-.16-.24h0l0,0-.08-.1c-.23-.27-.44-.56-.68-.79A8.1,8.1,0,0,0,65,95.62c-.22-.14-.44-.26-.67-.38L64,95.09,63.67,95l-.42-.14,0,0V108h0a5.27,5.27,0,0,0,2-.59,6.57,6.57,0,0,0,3.31-5.19A6,6,0,0,0,68.36,100.22Zm0,0a5.93,5.93,0,0,0-.3-.93,4.48,4.48,0,0,0-.19-.44c-.07-.12-.13-.24-.19-.36a1.07,1.07,0,0,0-.14-.22L67.37,98l-.16-.24h0l0,0-.08-.1c-.23-.27-.44-.56-.68-.79A8.1,8.1,0,0,0,65,95.62c-.22-.14-.44-.26-.67-.38L64,95.09,63.67,95l-.42-.14,0,0V108h0a5.27,5.27,0,0,0,2-.59,6.57,6.57,0,0,0,3.31-5.19A6,6,0,0,0,68.36,100.22Zm0,0a5.93,5.93,0,0,0-.3-.93,4.48,4.48,0,0,0-.19-.44c-.07-.12-.13-.24-.19-.36a1.07,1.07,0,0,0-.14-.22L67.37,98l-.16-.24h0l0,0-.08-.1c-.23-.27-.44-.56-.68-.79A8.1,8.1,0,0,0,65,95.62c-.22-.14-.44-.26-.67-.38L64,95.09,63.67,95l-.42-.14,0,0V108h0a5.27,5.27,0,0,0,2-.59,6.57,6.57,0,0,0,3.31-5.19A6,6,0,0,0,68.36,100.22Zm0,0a5.93,5.93,0,0,0-.3-.93,4.48,4.48,0,0,0-.19-.44c-.07-.12-.13-.24-.19-.36a1.07,1.07,0,0,0-.14-.22L67.37,98l-.16-.24h0l0,0-.08-.1c-.23-.27-.44-.56-.68-.79A8.1,8.1,0,0,0,65,95.62c-.22-.14-.44-.26-.67-.38L64,95.09,63.67,95l-.42-.14,0,0V108h0a5.27,5.27,0,0,0,2-.59,6.57,6.57,0,0,0,3.31-5.19A6,6,0,0,0,68.36,100.22Zm0,0a5.93,5.93,0,0,0-.3-.93,4.48,4.48,0,0,0-.19-.44c-.07-.12-.13-.24-.19-.36a1.07,1.07,0,0,0-.14-.22L67.37,98l-.16-.24h0l0,0-.08-.1c-.23-.27-.44-.56-.68-.79A8.1,8.1,0,0,0,65,95.62c-.22-.14-.44-.26-.67-.38L64,95.09,63.67,95l-.42-.14,0,0V108h0a5.27,5.27,0,0,0,2-.59,6.57,6.57,0,0,0,3.31-5.19A6,6,0,0,0,68.36,100.22Zm0,0a5.93,5.93,0,0,0-.3-.93,4.48,4.48,0,0,0-.19-.44c-.07-.12-.13-.24-.19-.36a1.07,1.07,0,0,0-.14-.22L67.37,98l-.16-.24h0l0,0-.08-.1c-.23-.27-.44-.56-.68-.79A8.1,8.1,0,0,0,65,95.62c-.22-.14-.44-.26-.67-.38L64,95.09,63.67,95l-.42-.14,0,0V108h0a5.27,5.27,0,0,0,2-.59,6.57,6.57,0,0,0,3.31-5.19A6,6,0,0,0,68.36,100.22Zm0,0a5.93,5.93,0,0,0-.3-.93,4.48,4.48,0,0,0-.19-.44c-.07-.12-.13-.24-.19-.36a1.07,1.07,0,0,0-.14-.22L67.37,98l-.16-.24h0l0,0-.08-.1c-.23-.27-.44-.56-.68-.79A8.1,8.1,0,0,0,65,95.62c-.22-.14-.44-.26-.67-.38L64,95.09,63.67,95l-.42-.14,0,0V108h0a5.27,5.27,0,0,0,2-.59,6.57,6.57,0,0,0,3.31-5.19A6,6,0,0,0,68.36,100.22ZM90.34,74a7.41,7.41,0,0,1-.77-.8,7.53,7.53,0,0,1-.74-.93l-.25-.35a2.3,2.3,0,0,1-.24-.4l-.28-.47-.22-.46a10.5,10.5,0,0,1-1-4.1,9.25,9.25,0,0,1,3-7.27,6.5,6.5,0,0,1,.87-.7l-1.57.14c-.46.07-1,.13-1.46.18L86.14,59c-1,.1-2.34.22-3.8.28l-.3,0-4.15.22c-.94,0-1.91.1-2.91.11l-1.37,0c-.9,0-1.82,0-2.75.06l-4.23,0-4.28,0c-1,0-2,0-2.92-.05l-1.22,0c-1.78,0-3.49-.13-5-.22l-2.32-.12c-1.43-.07-2.64-.2-3.62-.31l-1.37-.14a2.06,2.06,0,0,1-.35,0l-3.1-.28a7.48,7.48,0,0,1,.87.71,9.25,9.25,0,0,1,2.95,7.27,10.54,10.54,0,0,1-1,4l-.25.51-.27.47a3.28,3.28,0,0,1-.2.34l-.35.48a7,7,0,0,1-.68.86,8.54,8.54,0,0,1-.78.8,10.43,10.43,0,0,1-1.27,1v52.82h7.7V75.9h3.67v51.94h6.69V75.9H63.2v51.94h6.69V75.9h3.66v51.94h6.69V75.9h3.67v51.94h7.21V74.66A9.59,9.59,0,0,1,90.34,74Zm-22,26.21a5.93,5.93,0,0,0-.3-.93,4.48,4.48,0,0,0-.19-.44c-.07-.12-.13-.24-.19-.36a1.07,1.07,0,0,0-.14-.22L67.37,98l-.16-.24h0l0,0-.08-.1c-.23-.27-.44-.56-.68-.79A8.1,8.1,0,0,0,65,95.62c-.22-.14-.44-.26-.67-.38L64,95.09,63.67,95l-.42-.14,0,0V108h0a5.27,5.27,0,0,0,2-.59,6.57,6.57,0,0,0,3.31-5.19A6,6,0,0,0,68.36,100.22Zm0,0a5.93,5.93,0,0,0-.3-.93,4.48,4.48,0,0,0-.19-.44c-.07-.12-.13-.24-.19-.36a1.07,1.07,0,0,0-.14-.22L67.37,98l-.16-.24h0l0,0-.08-.1c-.23-.27-.44-.56-.68-.79A8.1,8.1,0,0,0,65,95.62c-.22-.14-.44-.26-.67-.38L64,95.09,63.67,95l-.42-.14,0,0V108h0a5.27,5.27,0,0,0,2-.59,6.57,6.57,0,0,0,3.31-5.19A6,6,0,0,0,68.36,100.22Zm0,0a5.93,5.93,0,0,0-.3-.93,4.48,4.48,0,0,0-.19-.44c-.07-.12-.13-.24-.19-.36a1.07,1.07,0,0,0-.14-.22L67.37,98l-.16-.24h0l0,0-.08-.1c-.23-.27-.44-.56-.68-.79A8.1,8.1,0,0,0,65,95.62c-.22-.14-.44-.26-.67-.38L64,95.09,63.67,95l-.42-.14,0,0V108h0a5.27,5.27,0,0,0,2-.59,6.57,6.57,0,0,0,3.31-5.19A6,6,0,0,0,68.36,100.22Zm0,0a5.93,5.93,0,0,0-.3-.93,4.48,4.48,0,0,0-.19-.44c-.07-.12-.13-.24-.19-.36a1.07,1.07,0,0,0-.14-.22L67.37,98l-.16-.24h0l0,0-.08-.1c-.23-.27-.44-.56-.68-.79A8.1,8.1,0,0,0,65,95.62c-.22-.14-.44-.26-.67-.38L64,95.09,63.67,95l-.42-.14,0,0V108h0a5.27,5.27,0,0,0,2-.59,6.57,6.57,0,0,0,3.31-5.19A6,6,0,0,0,68.36,100.22Zm0,0a5.93,5.93,0,0,0-.3-.93,4.48,4.48,0,0,0-.19-.44c-.07-.12-.13-.24-.19-.36a1.07,1.07,0,0,0-.14-.22L67.37,98l-.16-.24h0l0,0-.08-.1c-.23-.27-.44-.56-.68-.79A8.1,8.1,0,0,0,65,95.62c-.22-.14-.44-.26-.67-.38L64,95.09,63.67,95l-.42-.14,0,0V108h0a5.27,5.27,0,0,0,2-.59,6.57,6.57,0,0,0,3.31-5.19A6,6,0,0,0,68.36,100.22Zm0,0a5.93,5.93,0,0,0-.3-.93,4.48,4.48,0,0,0-.19-.44c-.07-.12-.13-.24-.19-.36a1.07,1.07,0,0,0-.14-.22L67.37,98l-.16-.24h0l0,0-.08-.1c-.23-.27-.44-.56-.68-.79A8.1,8.1,0,0,0,65,95.62c-.22-.14-.44-.26-.67-.38L64,95.09,63.67,95l-.42-.14,0,0V108h0a5.27,5.27,0,0,0,2-.59,6.57,6.57,0,0,0,3.31-5.19A6,6,0,0,0,68.36,100.22Zm0,0a5.93,5.93,0,0,0-.3-.93,4.48,4.48,0,0,0-.19-.44c-.07-.12-.13-.24-.19-.36a1.07,1.07,0,0,0-.14-.22L67.37,98l-.16-.24h0l0,0-.08-.1c-.23-.27-.44-.56-.68-.79A8.1,8.1,0,0,0,65,95.62c-.22-.14-.44-.26-.67-.38L64,95.09,63.67,95l-.42-.14,0,0V108h0a5.27,5.27,0,0,0,2-.59,6.57,6.57,0,0,0,3.31-5.19A6,6,0,0,0,68.36,100.22Zm0,0a5.93,5.93,0,0,0-.3-.93,4.48,4.48,0,0,0-.19-.44c-.07-.12-.13-.24-.19-.36a1.07,1.07,0,0,0-.14-.22L67.37,98l-.16-.24h0l0,0-.08-.1c-.23-.27-.44-.56-.68-.79A8.1,8.1,0,0,0,65,95.62c-.22-.14-.44-.26-.67-.38L64,95.09,63.67,95l-.42-.14,0,0V108h0a5.27,5.27,0,0,0,2-.59,6.57,6.57,0,0,0,3.31-5.19A6,6,0,0,0,68.36,100.22Zm0,0a5.93,5.93,0,0,0-.3-.93,4.48,4.48,0,0,0-.19-.44c-.07-.12-.13-.24-.19-.36a1.07,1.07,0,0,0-.14-.22L67.37,98l-.16-.24h0l0,0-.08-.1c-.23-.27-.44-.56-.68-.79A8.1,8.1,0,0,0,65,95.62c-.22-.14-.44-.26-.67-.38L64,95.09,63.67,95l-.42-.14,0,0V108h0a5.27,5.27,0,0,0,2-.59,6.57,6.57,0,0,0,3.31-5.19A6,6,0,0,0,68.36,100.22Zm0,0a5.93,5.93,0,0,0-.3-.93,4.48,4.48,0,0,0-.19-.44c-.07-.12-.13-.24-.19-.36a1.07,1.07,0,0,0-.14-.22L67.37,98l-.16-.24h0l0,0-.08-.1c-.23-.27-.44-.56-.68-.79A8.1,8.1,0,0,0,65,95.62c-.22-.14-.44-.26-.67-.38L64,95.09,63.67,95l-.42-.14,0,0V108h0a5.27,5.27,0,0,0,2-.59,6.57,6.57,0,0,0,3.31-5.19A6,6,0,0,0,68.36,100.22Zm0,0a5.93,5.93,0,0,0-.3-.93,4.48,4.48,0,0,0-.19-.44c-.07-.12-.13-.24-.19-.36a1.07,1.07,0,0,0-.14-.22L67.37,98l-.16-.24h0l0,0-.08-.1c-.23-.27-.44-.56-.68-.79A8.1,8.1,0,0,0,65,95.62c-.22-.14-.44-.26-.67-.38L64,95.09,63.67,95l-.42-.14,0,0V108h0a5.27,5.27,0,0,0,2-.59,6.57,6.57,0,0,0,3.31-5.19A6,6,0,0,0,68.36,100.22Z"/><path class="cls-3" d="M30.15,59.56l0,0,0,0Z"/><path class="cls-4" d="M111.61.56V8.05l-4.92,0c-1.65,0-3.27-.06-4.84-.1-3.13-.07-6.06-.3-8.57-.41S88.86,7.08,87.39,7h-.3L84.5,6.73h0l-.64-.06c-1-.09-2.23-.17-3.59-.21a27.19,27.19,0,0,0-4.36.2,10.32,10.32,0,0,0-4.24,1.52,12.2,12.2,0,0,0-1.93,1.68c-.32.32-.61.71-.92,1.08l-.11.12,0,0v0l0,0,0,0-.2.3-.24.34a3.18,3.18,0,0,0-.18.31c-.08.16-.17.33-.27.49s-.17.4-.26.6a8.07,8.07,0,0,0-.41,1.29,8.26,8.26,0,0,0-.19,2.77,9,9,0,0,0,2.24,5.26,8.8,8.8,0,0,0,2.31,1.86,7,7,0,0,0,2.69.82,7.41,7.41,0,0,0,5.37-1.6,4.69,4.69,0,0,0,.53-.47,4.61,4.61,0,0,0,.48-.51l.23-.27,0,0s0-.06,0-.06l.11-.17.23-.34.16-.28A6.87,6.87,0,0,0,82.13,19a5.62,5.62,0,0,0-1.41-4.54A4.34,4.34,0,0,0,77,13a3.21,3.21,0,0,0-2.56,1.61,4.34,4.34,0,0,0-.5,2.06v0h-1A5.1,5.1,0,0,1,73.35,14a4.59,4.59,0,0,1,3.42-2.54A6.09,6.09,0,0,1,82,13.1a7.71,7.71,0,0,1,2.43,6,9.26,9.26,0,0,1-.87,3.56l-.22.45-.21.35-.1.18-.08.14-.07.1-.28.38A5.33,5.33,0,0,1,82,25a4.92,4.92,0,0,1-.67.7,10.62,10.62,0,0,1-11.58,1.91,12.53,12.53,0,0,1-3.46-2.37,13.51,13.51,0,0,1-3.93-11.62,14,14,0,0,1,.47-2c.12-.34.21-.66.35-1l.47-1a3.35,3.35,0,0,1,.22-.43l.21-.37.2-.36,0,0,.1-.16.06-.1.13-.19c.36-.51.69-1,1.1-1.51a16.9,16.9,0,0,1,2.65-2.7A16.22,16.22,0,0,1,74.74.78,31.37,31.37,0,0,1,80.15.09C81.71,0,83,0,84.13,0h.51s.8,0,1.93,0h.91c.12,0,.24,0,.36,0,1.41.07,3.25.18,5.44.22,2.51,0,5.44.17,8.57.19Z"/><path class="cls-4" d="M99,62.05a3.91,3.91,0,0,0-2.91-2.15,2.57,2.57,0,0,0-.4-.06h-.23v1.31a2.16,2.16,0,0,1,.44,0,2.77,2.77,0,0,1,2.17,1.36,3.67,3.67,0,0,1,.42,1.67h.9A4.53,4.53,0,0,0,99,62.05Zm0,0a3.91,3.91,0,0,0-2.91-2.15,2.57,2.57,0,0,0-.4-.06h-.23v1.31a2.16,2.16,0,0,1,.44,0,2.77,2.77,0,0,1,2.17,1.36,3.67,3.67,0,0,1,.42,1.67h.9A4.53,4.53,0,0,0,99,62.05Zm0,0a3.91,3.91,0,0,0-2.91-2.15,2.57,2.57,0,0,0-.4-.06h-.23v1.31a2.16,2.16,0,0,1,.44,0,2.77,2.77,0,0,1,2.17,1.36,3.67,3.67,0,0,1,.42,1.67h.9A4.53,4.53,0,0,0,99,62.05Zm0,0a3.91,3.91,0,0,0-2.91-2.15,2.57,2.57,0,0,0-.4-.06h-.23v1.31a2.16,2.16,0,0,1,.44,0,2.77,2.77,0,0,1,2.17,1.36,3.67,3.67,0,0,1,.42,1.67h.9A4.53,4.53,0,0,0,99,62.05Zm0,0a3.91,3.91,0,0,0-2.91-2.15,2.57,2.57,0,0,0-.4-.06h-.23v1.31a2.16,2.16,0,0,1,.44,0,2.77,2.77,0,0,1,2.17,1.36,3.67,3.67,0,0,1,.42,1.67h.9A4.53,4.53,0,0,0,99,62.05Zm0,0a3.91,3.91,0,0,0-2.91-2.15,2.57,2.57,0,0,0-.4-.06h-.23v1.31a2.16,2.16,0,0,1,.44,0,2.77,2.77,0,0,1,2.17,1.36,3.67,3.67,0,0,1,.42,1.67h.9A4.53,4.53,0,0,0,99,62.05Zm0,0a3.91,3.91,0,0,0-2.91-2.15,2.57,2.57,0,0,0-.4-.06h-.23v1.31a2.16,2.16,0,0,1,.44,0,2.77,2.77,0,0,1,2.17,1.36,3.67,3.67,0,0,1,.42,1.67h.9A4.53,4.53,0,0,0,99,62.05Zm7.68-50.79c-1.14,0-2.3,0-3.44-.07l-1.44,0c-2.1,0-4.12-.16-5.91-.26l-2.74-.15c-1.68-.07-3.11-.23-4.27-.35-.59-.07-1.13-.13-1.62-.17l-.41,0-3.65-.33a9,9,0,0,1,1,.83,10.88,10.88,0,0,1,3.48,8.58,12.27,12.27,0,0,1-1.17,4.78l-.29.59-.32.56a2.3,2.3,0,0,1-.24.4l-.4.57a10.81,10.81,0,0,1-.81,1,9.34,9.34,0,0,1-.92.95A14.39,14.39,0,0,1,82,29.33v98.51h9.08V30.36h4.32v97.48h7.89V30.36h4.33v97.48h4V11.3ZM99,62.05a3.91,3.91,0,0,0-2.91-2.15,2.57,2.57,0,0,0-.4-.06h-.23v1.31a2.16,2.16,0,0,1,.44,0,2.77,2.77,0,0,1,2.17,1.36,3.67,3.67,0,0,1,.42,1.67h.9A4.53,4.53,0,0,0,99,62.05Zm0,0a3.91,3.91,0,0,0-2.91-2.15,2.57,2.57,0,0,0-.4-.06h-.23v1.31a2.16,2.16,0,0,1,.44,0,2.77,2.77,0,0,1,2.17,1.36,3.67,3.67,0,0,1,.42,1.67h.9A4.53,4.53,0,0,0,99,62.05Zm0,0a3.91,3.91,0,0,0-2.91-2.15,2.57,2.57,0,0,0-.4-.06h-.23v1.31a2.16,2.16,0,0,1,.44,0,2.77,2.77,0,0,1,2.17,1.36,3.67,3.67,0,0,1,.42,1.67h.9A4.53,4.53,0,0,0,99,62.05Zm0,0a3.91,3.91,0,0,0-2.91-2.15,2.57,2.57,0,0,0-.4-.06h-.23v1.31a2.16,2.16,0,0,1,.44,0,2.77,2.77,0,0,1,2.17,1.36,3.67,3.67,0,0,1,.42,1.67h.9A4.53,4.53,0,0,0,99,62.05Zm0,0a3.91,3.91,0,0,0-2.91-2.15,2.57,2.57,0,0,0-.4-.06h-.23v1.31a2.16,2.16,0,0,1,.44,0,2.77,2.77,0,0,1,2.17,1.36,3.67,3.67,0,0,1,.42,1.67h.9A4.53,4.53,0,0,0,99,62.05Zm0,0a3.91,3.91,0,0,0-2.91-2.15,2.57,2.57,0,0,0-.4-.06h-.23v1.31a2.16,2.16,0,0,1,.44,0,2.77,2.77,0,0,1,2.17,1.36,3.67,3.67,0,0,1,.42,1.67h.9A4.53,4.53,0,0,0,99,62.05Zm0,0a3.91,3.91,0,0,0-2.91-2.15,2.57,2.57,0,0,0-.4-.06h-.23v1.31a2.16,2.16,0,0,1,.44,0,2.77,2.77,0,0,1,2.17,1.36,3.67,3.67,0,0,1,.42,1.67h.9A4.53,4.53,0,0,0,99,62.05Zm0,0a3.91,3.91,0,0,0-2.91-2.15,2.57,2.57,0,0,0-.4-.06h-.23v1.31a2.16,2.16,0,0,1,.44,0,2.77,2.77,0,0,1,2.17,1.36,3.67,3.67,0,0,1,.42,1.67h.9A4.53,4.53,0,0,0,99,62.05Z"/><path class="cls-4" d="M68.68,11.09l0,0,0,0Z"/><path class="cls-5" d="M62.42,17.88a13.28,13.28,0,0,1-.05-4.22,14,14,0,0,1,.47-2c.12-.34.21-.66.35-1l.47-1a3.35,3.35,0,0,1,.22-.43l.21-.37.2-.36,0,0,.1-.16.06-.1.13-.19c.36-.51.69-1,1.1-1.51a16.9,16.9,0,0,1,2.65-2.7A16.22,16.22,0,0,1,74.74.78,31.37,31.37,0,0,1,80.15.09C81.71,0,83,0,84.13,0h.51s.8,0,1.93,0h.91c.12,0,.24,0,.36,0,1.41.07,3.25.18,5.44.22,2.51,0,5.44.17,8.57.19l9.76.07V8.05l-4.92,0c-1.65,0-3.27-.06-4.84-.1-3.13-.07-6.06-.3-8.57-.41S88.86,7.08,87.39,7h-.3L84.5,6.73h0l-.64-.06c-1-.09-2.23-.17-3.59-.21a27.19,27.19,0,0,0-4.36.2,10.32,10.32,0,0,0-4.24,1.52,12.2,12.2,0,0,0-1.93,1.68c-.32.32-.61.71-.92,1.08l-.11.12,0,0v0l0,0,0,0-.2.3-.24.34a3.18,3.18,0,0,0-.18.31c-.08.16-.17.33-.27.49s-.17.4-.26.6a8.07,8.07,0,0,0-.41,1.29,8.26,8.26,0,0,0-.19,2.77,9,9,0,0,0,2.24,5.26,8.8,8.8,0,0,0,2.31,1.86,7,7,0,0,0,2.69.82,7.41,7.41,0,0,0,5.37-1.6,4.69,4.69,0,0,0,.53-.47,4.61,4.61,0,0,0,.48-.51l.23-.27,0,0s0-.06,0-.06l.11-.17.23-.34.16-.28A6.87,6.87,0,0,0,82.13,19a5.62,5.62,0,0,0-1.41-4.54A4.34,4.34,0,0,0,77,13a3.21,3.21,0,0,0-2.56,1.61,4.34,4.34,0,0,0-.5,2.06v0h-1A5.1,5.1,0,0,1,73.35,14a4.59,4.59,0,0,1,3.42-2.54A6.09,6.09,0,0,1,82,13.1a7.71,7.71,0,0,1,2.43,6,9.26,9.26,0,0,1-.87,3.56l-.22.45-.21.35-.1.18-.08.14-.07.1-.28.38A5.33,5.33,0,0,1,82,25a4.92,4.92,0,0,1-.67.7,10.62,10.62,0,0,1-11.58,1.91,12.53,12.53,0,0,1-3.46-2.37A13.34,13.34,0,0,1,62.42,17.88Z"/><path class="cls-5" d="M106.66,11.26c-1.14,0-2.3,0-3.44-.07l-1.44,0c-2.1,0-4.12-.16-5.91-.26l-2.74-.15c-1.68-.07-3.11-.23-4.27-.35-.59-.07-1.13-.13-1.62-.17l-.41,0-3.65-.33a9,9,0,0,1,1,.83,10.88,10.88,0,0,1,3.48,8.58,12.27,12.27,0,0,1-1.17,4.78l-.29.59-.32.56a2.3,2.3,0,0,1-.24.4l-.4.57a10.81,10.81,0,0,1-.81,1,9.34,9.34,0,0,1-.92.95A14.39,14.39,0,0,1,82,29.33V50.41c-2.09,0-4.51.13-7.1.16l-8.33.06-8.34-.06c-2.66,0-5.14-.12-7.27-.16-1.85,0-3.41-.13-4.61-.18-.1,0-.2,0-.3,0h-.77c-1,0-1.64,0-1.64,0h-.43c-.93,0-2,0-3.38.07a26.86,26.86,0,0,0-4.58.59,13.73,13.73,0,0,0-5.41,2.5,14.32,14.32,0,0,0-2.25,2.29c-.35.41-.63.85-.93,1.28l-.11.16-.05.09-.09.13,0,0-.17.3-.18.31c0,.1-.12.21-.19.37l-.4.87c-.11.29-.19.56-.29.85a11.25,11.25,0,0,0-.36,5.3,11.3,11.3,0,0,0,3.29,6.28,10.74,10.74,0,0,0,2.94,2,9.13,9.13,0,0,0,3.54.79A8.94,8.94,0,0,0,40.88,72a6.45,6.45,0,0,0,.58-.59,6.12,6.12,0,0,0,.5-.64l.24-.33,0-.08a.7.7,0,0,0,.08-.12l.08-.15.17-.3.19-.38a7.74,7.74,0,0,0,.74-3,6.51,6.51,0,0,0-2.06-5.12A5.16,5.16,0,0,0,37,59.9a3.87,3.87,0,0,0-2.9,2.15,4.4,4.4,0,0,0-.39,2.24h.89v0A3.76,3.76,0,0,1,35,62.52a2.77,2.77,0,0,1,2.17-1.36,3.69,3.69,0,0,1,3.16,1.23,4.78,4.78,0,0,1,1.19,3.85,5.86,5.86,0,0,1-.69,2.13l-.14.23-.19.29-.1.15s-.06.09,0,0l0,.06-.2.23a2.78,2.78,0,0,1-.41.43,2.86,2.86,0,0,1-.45.4,6.28,6.28,0,0,1-4.55,1.36,5.91,5.91,0,0,1-2.27-.7,7.1,7.1,0,0,1-2-1.57,7.78,7.78,0,0,1-1.91-4.46,7.36,7.36,0,0,1,.17-2.35,6.29,6.29,0,0,1,.34-1.09c.08-.17.15-.36.23-.51s.16-.28.23-.42a1.6,1.6,0,0,1,.15-.26l.2-.29.18-.27h0l0,0,0,0,.09-.11c.27-.31.51-.64.79-.91a9.28,9.28,0,0,1,1.63-1.43,8.77,8.77,0,0,1,3.59-1.28A22.24,22.24,0,0,1,40,55.64c1.16,0,2.2.1,3,.17l.54,0h0l2.2.2h0l.22,0c1.24.08,2.86.34,5,.44s4.61.28,7.27.34c1.33,0,2.71.09,4.1.09l4.24,0,4.23,0c1.4,0,2.77-.07,4.1-.1s2.62-.11,3.84-.17L82,56.52v2.75l-4.15.22c-.94,0-1.91.1-2.91.11l-1.37,0c-.9,0-1.82,0-2.75.06l-4.23,0-4.28,0c-1,0-2,0-2.92-.05l-1.22,0c-1.78,0-3.49-.13-5-.22l-2.32-.12c-1.43-.07-2.64-.2-3.62-.31l-1.37-.14a2.06,2.06,0,0,1-.35,0l-3.1-.28a7.48,7.48,0,0,1,.87.71,9.25,9.25,0,0,1,2.95,7.27,10.54,10.54,0,0,1-1,4l-.25.51-.27.47a3.28,3.28,0,0,1-.2.34l-.35.48a7,7,0,0,1-.68.86,8.54,8.54,0,0,1-.78.8,10.43,10.43,0,0,1-1.27,1V90l-5.47,0-7.16,0c-2.28,0-4.41-.1-6.24-.14-1.59,0-2.93-.11-4-.16l-.26,0h-.66c-.82,0-1.41,0-1.41,0h-.37c-.8,0-1.75,0-2.89.07a23.42,23.42,0,0,0-3.94.5,12,12,0,0,0-4.65,2.15,11.92,11.92,0,0,0-1.92,2,12.34,12.34,0,0,0-.8,1.1l-.1.14,0,.07-.07.11,0,0-.15.27-.15.26a2.24,2.24,0,0,0-.17.32L.7,97.4c-.1.24-.17.48-.25.72a9.21,9.21,0,0,0-.34,1.49A9.57,9.57,0,0,0,0,101a10.24,10.24,0,0,0,.14,1.66A9.7,9.7,0,0,0,3,108.07a9.23,9.23,0,0,0,2.52,1.72,7.84,7.84,0,0,0,3,.68,7.66,7.66,0,0,0,5.38-2.07,4.7,4.7,0,0,0,.49-.51,3.93,3.93,0,0,0,.44-.55l.2-.28.05-.07a.44.44,0,0,0,.06-.1l.08-.13.14-.26.16-.32a6.67,6.67,0,0,0,.64-2.59A5.57,5.57,0,0,0,14.4,99.2,4.39,4.39,0,0,0,10.59,98,3.33,3.33,0,0,0,8.1,99.87a3.86,3.86,0,0,0-.34,1.93h.77v0a3.11,3.11,0,0,1,.36-1.5,2.37,2.37,0,0,1,1.87-1.17,3.17,3.17,0,0,1,2.7,1.06,4.1,4.1,0,0,1,1,3.3,4.88,4.88,0,0,1-.6,1.83l-.11.2-.17.25-.09.12,0,0h0l0,0-.16.2a2.53,2.53,0,0,1-.36.37,2.5,2.5,0,0,1-.38.35A5.37,5.37,0,0,1,8.65,108a5.22,5.22,0,0,1-1.95-.59A6.53,6.53,0,0,1,5,106.07a6.65,6.65,0,0,1-1.63-3.83,6.21,6.21,0,0,1,.14-2,5.93,5.93,0,0,1,.3-.93A4.48,4.48,0,0,1,4,98.85c.07-.12.14-.24.2-.36a1.51,1.51,0,0,1,.13-.22L4.51,98l.16-.23h0l0,0v0h0l.09-.09a8.7,8.7,0,0,1,.67-.79,7.79,7.79,0,0,1,1.4-1.22A7.58,7.58,0,0,1,10,94.51a19.2,19.2,0,0,1,3.17-.14c1,0,1.89.09,2.62.15l.47,0,1.89.17h.22c1.06.07,2.45.3,4.28.38s4,.24,6.24.29c1.15,0,2.32.08,3.52.08l3.64,0,3.63,0,1.84,0v2.36l-1.82,0-3.63,0-3.68,0c-.83,0-1.67,0-2.5,0l-1.05,0c-1.53,0-3-.11-4.3-.19l-2-.11c-1.23,0-2.27-.16-3.11-.26-.44,0-.83-.09-1.18-.11l-.3,0-2.66-.24a7,7,0,0,1,.75.6,7.92,7.92,0,0,1,2.53,6.24,9,9,0,0,1-.85,3.49l-.22.43-.23.4a1.6,1.6,0,0,1-.17.29l-.29.42a7.58,7.58,0,0,1-.59.73,7.44,7.44,0,0,1-.67.69,10.14,10.14,0,0,1-1.09.87v16.83H21V111.76h3.15v16.08h5.74V111.76h3.15v16.08h5.74V111.76h2.66v16.08h7.7V75.9h3.67v51.94h6.69V75.9H63.2v51.94h6.69V75.9h3.66v51.94h6.69V75.9H82v51.94h9.08V30.36h4.32v97.48h7.89V30.36h4.33v97.48h4V11.3Z"/></g></g></svg>