<svg xmlns="http://www.w3.org/2000/svg" viewBox="0 0 111.61 127.84"><defs><style>.cls-1{fill:none;}.cls-2{fill:#43576d;}.cls-3{fill:#929eaa;}.cls-4{fill:#fff;}.cls-5{fill:#021d3b;opacity:0.49;}</style></defs><g id="Calque_2" data-name="Calque 2"><g id="Calque_1-2" data-name="Calque 1"><path class="cls-1" d="M0,.56V8.05L4.92,8C6.57,8,8.19,8,9.76,7.91c3.13-.07,6.06-.3,8.57-.41s4.42-.42,5.89-.52h.3l2.59-.23h0l.64-.06c1-.09,2.23-.17,3.59-.21a27.19,27.19,0,0,1,4.36.2A10.32,10.32,0,0,1,40,8.18a12.2,12.2,0,0,1,1.93,1.68c.32.32.61.71.92,1.08l.11.12,0,0v0l0,0,0,0,.2.3.24.34a3.18,3.18,0,0,1,.18.31c.08.16.17.33.27.49s.17.4.26.6a8.07,8.07,0,0,1,.41,1.29,8.26,8.26,0,0,1,.19,2.77,9,9,0,0,1-2.24,5.26,8.8,8.8,0,0,1-2.31,1.86,7,7,0,0,1-2.69.82,7.41,7.41,0,0,1-5.37-1.6,4.69,4.69,0,0,1-.53-.47,4.61,4.61,0,0,1-.48-.51l-.23-.27,0,0s0-.06-.05-.06l-.11-.17-.23-.34-.16-.28A6.87,6.87,0,0,1,29.48,19a5.62,5.62,0,0,1,1.41-4.54A4.34,4.34,0,0,1,34.61,13a3.21,3.21,0,0,1,2.56,1.61,4.34,4.34,0,0,1,.5,2.06v0h1A5.1,5.1,0,0,0,38.26,14a4.59,4.59,0,0,0-3.42-2.54A6.09,6.09,0,0,0,29.6,13.1a7.71,7.71,0,0,0-2.43,6A9.26,9.26,0,0,0,28,22.69l.22.45.21.35.1.18.08.14.07.1.28.38a5.33,5.33,0,0,0,.6.75,4.92,4.92,0,0,0,.67.7,10.62,10.62,0,0,0,11.58,1.91,12.53,12.53,0,0,0,3.46-2.37,13.51,13.51,0,0,0,3.93-11.62,14,14,0,0,0-.47-2c-.12-.34-.21-.66-.35-1l-.47-1a3.35,3.35,0,0,0-.22-.43l-.21-.37-.2-.36,0,0-.1-.16-.06-.1L47,7.94c-.36-.51-.69-1-1.1-1.51a16.9,16.9,0,0,0-2.65-2.7A16.22,16.22,0,0,0,36.87.78,31.37,31.37,0,0,0,31.46.09C29.9,0,28.58,0,27.48,0H27S26.17,0,25,0h-.91c-.12,0-.24,0-.36,0-1.41.07-3.25.18-5.44.22-2.51,0-5.44.17-8.57.19Z"/><path class="cls-1" d="M0,11.3V127.84H4V30.36H8.28v97.48h7.89V30.36h4.32v97.48h9.08V75.9h1.8v51.94h6.69V75.9h3.66v51.94h6.69V75.9h3.67v51.94h6.69V75.9h3.67v51.94h7.7V111.76H72.8v16.08h5.74V111.76h3.15v16.08h5.74V111.76h3.15v16.08h6.61V111a10.14,10.14,0,0,1-1.09-.87,7.44,7.44,0,0,1-.67-.69,7.58,7.58,0,0,1-.59-.73l-.29-.42a1.6,1.6,0,0,1-.17-.29l-.23-.4-.22-.43a9,9,0,0,1-.85-3.49,7.92,7.92,0,0,1,2.53-6.24,7,7,0,0,1,.75-.6l-2.66.24-.3,0c-.35,0-.74.07-1.18.11-.84.1-1.88.21-3.11.26l-2,.11c-1.3.08-2.77.16-4.3.19l-1,0c-.83,0-1.67,0-2.5,0l-3.68,0-3.63,0-1.82,0V95.46l1.84,0,3.63,0,3.64,0c1.2,0,2.37,0,3.52-.08,2.28,0,4.41-.21,6.24-.29s3.22-.31,4.28-.38h.22l1.89-.17.47,0c.73-.06,1.62-.12,2.62-.15a19.2,19.2,0,0,1,3.17.14,7.58,7.58,0,0,1,3.08,1.11,7.79,7.79,0,0,1,1.4,1.22,8.7,8.7,0,0,1,.67.79l.09.09h0v0l0,0h0l.16.23.17.25a1.51,1.51,0,0,1,.13.22c.06.12.13.24.2.36a4.48,4.48,0,0,1,.19.44,5.93,5.93,0,0,1,.3.93,6.21,6.21,0,0,1,.14,2,6.65,6.65,0,0,1-1.63,3.83,6.53,6.53,0,0,1-1.69,1.36,5.22,5.22,0,0,1-2,.59,5.37,5.37,0,0,1-3.91-1.16,9.43,9.43,0,0,1-.74-.72l-.16-.2,0,0h0l0,0-.09-.12-.17-.25-.11-.2a4.88,4.88,0,0,1-.6-1.83,4.1,4.1,0,0,1,1-3.3,3.17,3.17,0,0,1,2.7-1.06,2.37,2.37,0,0,1,1.87,1.17,3.11,3.11,0,0,1,.36,1.5v0h.77a3.86,3.86,0,0,0-.34-1.93A3.33,3.33,0,0,0,101,98a4.39,4.39,0,0,0-3.81,1.17,5.57,5.57,0,0,0-1.77,4.39,6.67,6.67,0,0,0,.64,2.59l.16.32.14.26.08.13a.44.44,0,0,0,.06.1l0,.07.2.28a3.93,3.93,0,0,0,.44.55,4.7,4.7,0,0,0,.49.51,7.66,7.66,0,0,0,5.38,2.07,7.84,7.84,0,0,0,3-.68,9.23,9.23,0,0,0,2.52-1.72,9.7,9.7,0,0,0,2.83-5.39,10.24,10.24,0,0,0,.14-1.66,9.57,9.57,0,0,0-.11-1.41,9.21,9.21,0,0,0-.34-1.49c-.08-.24-.15-.48-.25-.72l-.34-.75a2.24,2.24,0,0,0-.17-.32l-.15-.26-.15-.27,0,0-.07-.11,0-.07-.1-.14a12.34,12.34,0,0,0-.8-1.1,10.86,10.86,0,0,0-6.57-4.12,23.42,23.42,0,0,0-3.94-.5c-1.14-.06-2.09-.07-2.89-.07H95.3s-.59,0-1.41,0h-.66l-.26,0c-1,0-2.37.13-4,.16-1.83,0-4,.13-6.24.14l-7.16,0-5.47,0V75a10.43,10.43,0,0,1-1.27-1,8.54,8.54,0,0,1-.78-.8,7,7,0,0,1-.68-.86l-.35-.48a3.28,3.28,0,0,1-.2-.34l-.27-.47-.25-.51a10.54,10.54,0,0,1-1-4,9.25,9.25,0,0,1,3-7.27,7.48,7.48,0,0,1,.87-.71l-3.1.28a2.06,2.06,0,0,1-.35,0L64.35,59c-1,.11-2.19.24-3.62.31l-2.32.12c-1.52.09-3.23.19-5,.22l-1.22,0c-1,0-2,.05-2.92.05l-4.28,0-4.23,0c-.93,0-1.85,0-2.75-.06l-1.37,0c-1,0-2-.06-2.91-.11l-4.15-.22V56.52l3.26.16c1.22.06,2.51.15,3.84.17s2.7.09,4.1.1L45,57l4.24,0c1.39,0,2.77-.06,4.1-.09,2.66-.06,5.14-.25,7.27-.34s3.75-.36,5-.44l.22,0h0l2.2-.2h0l.54,0c.85-.07,1.89-.14,3.05-.17a22.24,22.24,0,0,1,3.69.17,8.77,8.77,0,0,1,3.59,1.28,9.28,9.28,0,0,1,1.63,1.43c.28.27.52.6.79.91l.09.11,0,0,0,0h0l.18.27.2.29a1.6,1.6,0,0,1,.15.26c.07.14.15.28.23.42s.15.34.23.51a6.29,6.29,0,0,1,.34,1.09A7.36,7.36,0,0,1,83,64.81a7.78,7.78,0,0,1-1.91,4.46,7.1,7.1,0,0,1-2,1.57,5.91,5.91,0,0,1-2.27.7,6.28,6.28,0,0,1-4.55-1.36,2.86,2.86,0,0,1-.45-.4,2.78,2.78,0,0,1-.41-.43l-.2-.23,0-.06c0,.07,0,0,0,0l-.1-.15-.19-.29-.14-.23a5.86,5.86,0,0,1-.69-2.13,4.78,4.78,0,0,1,1.19-3.85,3.69,3.69,0,0,1,3.16-1.23,2.77,2.77,0,0,1,2.17,1.36A3.76,3.76,0,0,1,77,64.27v0h.89a4.4,4.4,0,0,0-.39-2.24,3.87,3.87,0,0,0-2.9-2.15,5.16,5.16,0,0,0-4.44,1.36,6.51,6.51,0,0,0-2.06,5.12,7.74,7.74,0,0,0,.74,3l.19.38.17.3.08.15a.7.7,0,0,0,.08.12l0,.08.24.33a6.12,6.12,0,0,0,.5.64,6.45,6.45,0,0,0,.58.59A8.94,8.94,0,0,0,77,74.39a9.13,9.13,0,0,0,3.54-.79,10.74,10.74,0,0,0,2.94-2,11.45,11.45,0,0,0,3.33-9.85,11.15,11.15,0,0,0-.4-1.73c-.1-.29-.18-.56-.29-.85l-.4-.87c-.07-.16-.14-.27-.19-.37l-.18-.31-.17-.3,0,0-.09-.13,0-.09-.11-.16c-.3-.43-.58-.87-.93-1.28a14.32,14.32,0,0,0-2.25-2.29,13.73,13.73,0,0,0-5.41-2.5,26.86,26.86,0,0,0-4.58-.59c-1.33-.07-2.45-.08-3.38-.07h-.43s-.68,0-1.64,0h-.77c-.1,0-.2,0-.3,0-1.2.05-2.76.14-4.61.18-2.13,0-4.61.15-7.27.16L45,50.63l-8.33-.06c-2.59,0-5-.12-7.1-.16V29.33a14.39,14.39,0,0,1-1.49-1.19,9.34,9.34,0,0,1-.92-.95,10.81,10.81,0,0,1-.81-1l-.4-.57a2.3,2.3,0,0,1-.24-.4l-.32-.56-.29-.59a12.27,12.27,0,0,1-1.17-4.78,10.88,10.88,0,0,1,3.48-8.58,9,9,0,0,1,1-.83l-3.65.33-.41,0c-.49,0-1,.1-1.62.17-1.16.12-2.59.28-4.27.35l-2.74.15c-1.79.1-3.81.22-5.91.26l-1.44,0c-1.14,0-2.3.07-3.44.07Z"/><path class="cls-2" d="M68.46,90c-2.2,0-4.25-.09-6-.13v5.24c.85,0,1.76.08,2.73.14s2.15.12,3.29.14l1.68,0,1.84,0,3.63,0,3.64,0c1.2,0,2.37,0,3.52-.08,2.28,0,4.41-.21,6.24-.29s3.22-.31,4.28-.38h.22l1.89-.17.47,0c.73-.06,1.62-.12,2.62-.15a19.2,19.2,0,0,1,3.17.14,7.58,7.58,0,0,1,3.08,1.11,7.79,7.79,0,0,1,1.4,1.22,8.7,8.7,0,0,1,.67.79l.09.09h0v0l0,0h0l.16.23.17.25a1.51,1.51,0,0,1,.13.22c.06.12.13.24.2.36a4.48,4.48,0,0,1,.19.44,5.93,5.93,0,0,1,.3.93,6.21,6.21,0,0,1,.14,2,6.65,6.65,0,0,1-1.63,3.83,6.53,6.53,0,0,1-1.69,1.36,5.22,5.22,0,0,1-2,.59,5.37,5.37,0,0,1-3.91-1.16,9.43,9.43,0,0,1-.74-.72l-.16-.2,0,0h0l0,0-.09-.12-.17-.25-.11-.2a4.88,4.88,0,0,1-.6-1.83,4.1,4.1,0,0,1,1-3.3,3.17,3.17,0,0,1,2.7-1.06,2.37,2.37,0,0,1,1.87,1.17,3.11,3.11,0,0,1,.36,1.5v0h.77a3.86,3.86,0,0,0-.34-1.93A3.33,3.33,0,0,0,101,98a4.39,4.39,0,0,0-3.81,1.17,5.57,5.57,0,0,0-1.77,4.39,6.67,6.67,0,0,0,.64,2.59l.16.32.14.26.08.13a.44.44,0,0,0,.06.1l0,.07.2.28a3.93,3.93,0,0,0,.44.55,4.7,4.7,0,0,0,.49.51,7.66,7.66,0,0,0,5.38,2.07,7.84,7.84,0,0,0,3-.68,9.23,9.23,0,0,0,2.52-1.72,9.7,9.7,0,0,0,2.83-5.39,10.24,10.24,0,0,0,.14-1.66,9.57,9.57,0,0,0-.11-1.41,9.21,9.21,0,0,0-.34-1.49c-.08-.24-.15-.48-.25-.72l-.34-.75a2.24,2.24,0,0,0-.17-.32l-.15-.26-.15-.27,0,0-.07-.11,0-.07-.1-.14a12.34,12.34,0,0,0-.8-1.1,10.86,10.86,0,0,0-6.57-4.12,23.42,23.42,0,0,0-3.94-.5c-1.14-.06-2.09-.07-2.89-.07H95.3s-.59,0-1.41,0h-.66l-.26,0c-1,0-2.37.13-4,.16-1.83,0-4,.13-6.24.14l-7.16,0-5.47,0Z"/><path class="cls-2" d="M52.08,89.78v4.58h.77c1,0,1.89.09,2.62.15l1.17.11c.28,0,.67.1,1.16.15l1,.08V89.75l-.34,0-.12,0h-.2l-2.44,0c-.8,0-1.76,0-2.89.07Z"/><path class="cls-2" d="M54.13,99.2a4.57,4.57,0,0,0-2.05-1.12v1.28a3.14,3.14,0,0,1,1.11.81,4.1,4.1,0,0,1,1,3.3,5.06,5.06,0,0,1-.6,1.83l-.12.2-.17.25-.08.12,0,0,0,0-.16.2a9.43,9.43,0,0,1-.74.72l-.21.16v2.51a7.32,7.32,0,0,0,1.56-1.13,4.7,4.7,0,0,0,.49-.51,3.93,3.93,0,0,0,.44-.55l.2-.28,0-.07a.44.44,0,0,0,.06-.1l.08-.13.14-.26.16-.32a6.67,6.67,0,0,0,.64-2.59A5.61,5.61,0,0,0,54.13,99.2Z"/><path class="cls-2" d="M48.26,101.72a3.29,3.29,0,0,1,.15-.94V99a2.9,2.9,0,0,0-.59.85,3.79,3.79,0,0,0-.33,1.85Z"/><path class="cls-2" d="M41.72,95.08V107a9.48,9.48,0,0,0,1,1.11,9.23,9.23,0,0,0,2.52,1.72,7.84,7.84,0,0,0,3,.68h.16V108h0a5.27,5.27,0,0,1-2-.59,6.57,6.57,0,0,1-3.31-5.19,6.2,6.2,0,0,1,.44-2.95,4.48,4.48,0,0,1,.19-.44c.07-.12.13-.24.19-.36a1.07,1.07,0,0,1,.14-.22l.17-.25.16-.24h0l0,0,.08-.1c.23-.27.44-.56.68-.79a8.1,8.1,0,0,1,1.39-1.22c.22-.14.44-.26.67-.38l.34-.15.34-.14.42-.14,0,0V90.34a11.73,11.73,0,0,0-4.22,2,12.4,12.4,0,0,0-1.93,2C42.07,94.58,41.89,94.83,41.72,95.08Z"/><path class="cls-2" d="M62.44,97.49v14.27H63.9v16.08h5.75V111.76H72.8v16.08h5.74V111.76h3.15v16.08h5.74V111.76h3.15v16.08h6.61V111a10.14,10.14,0,0,1-1.09-.87,7.44,7.44,0,0,1-.67-.69,7.58,7.58,0,0,1-.59-.73l-.29-.42a1.6,1.6,0,0,1-.17-.29l-.23-.4-.22-.43a9,9,0,0,1-.85-3.49,7.92,7.92,0,0,1,2.53-6.24,7,7,0,0,1,.75-.6l-2.66.24-.3,0c-.35,0-.74.07-1.18.11-.84.1-1.88.21-3.11.26l-2,.11c-1.3.08-2.77.16-4.3.19l-1,0c-.83,0-1.67,0-2.5,0l-3.68,0-3.63,0-1.82,0-.54,0-1.18,0c-.85,0-1.69,0-2.5-.1ZM54.15,111v16.83h4.62V97.22l-1.19-.09c-.43,0-.85-.1-1.25-.16L55,96.85a6.06,6.06,0,0,1,.74.6,7.93,7.93,0,0,1,2.54,6.24,9.31,9.31,0,0,1-.87,3.52l-.2.4L57,108a3.54,3.54,0,0,1-.21.34l-.22.3a6.22,6.22,0,0,1-.63.79,6.31,6.31,0,0,1-.66.69A10.14,10.14,0,0,1,54.15,111Z"/><path class="cls-2" d="M106.91,97.73h0s0,0,0,0Z"/><path class="cls-3" d="M21.77,50.16H20.49v5.56l1.05.08,1.36.13c.33.05.78.12,1.36.17,1.24.09,3,.29,5.14.4h.17l3.26.16c1.22.06,2.51.15,3.84.17s2.7.09,4.1.1L45,57l4.24,0c1.39,0,2.77-.06,4.1-.09,2.66-.06,5.14-.25,7.27-.34s3.75-.36,5-.44l.22,0h0l2.2-.2h0l.54,0c.85-.07,1.89-.14,3.05-.17a22.24,22.24,0,0,1,3.69.17,8.77,8.77,0,0,1,3.59,1.28,9.28,9.28,0,0,1,1.63,1.43c.28.27.52.6.79.91l.09.11,0,0,0,0h0l.18.27.2.29a1.6,1.6,0,0,1,.15.26c.07.14.15.28.23.42s.15.34.23.51a6.29,6.29,0,0,1,.34,1.09A7.36,7.36,0,0,1,83,64.81a7.78,7.78,0,0,1-1.91,4.46,7.1,7.1,0,0,1-2,1.57,5.91,5.91,0,0,1-2.27.7,6.28,6.28,0,0,1-4.55-1.36,2.86,2.86,0,0,1-.45-.4,2.78,2.78,0,0,1-.41-.43l-.2-.23,0-.06c0,.07,0,0,0,0l-.1-.15-.19-.29-.14-.23a5.86,5.86,0,0,1-.69-2.13,4.78,4.78,0,0,1,1.19-3.85,3.69,3.69,0,0,1,3.16-1.23,2.77,2.77,0,0,1,2.17,1.36A3.76,3.76,0,0,1,77,64.27v0h.89a4.4,4.4,0,0,0-.39-2.24,3.87,3.87,0,0,0-2.9-2.15,5.16,5.16,0,0,0-4.44,1.36,6.51,6.51,0,0,0-2.06,5.12,7.74,7.74,0,0,0,.74,3l.19.38.17.3.08.15a.7.7,0,0,0,.08.12l0,.08.24.33a6.12,6.12,0,0,0,.5.64,6.45,6.45,0,0,0,.58.59A8.94,8.94,0,0,0,77,74.39a9.13,9.13,0,0,0,3.54-.79,10.74,10.74,0,0,0,2.94-2,11.45,11.45,0,0,0,3.33-9.85,11.15,11.15,0,0,0-.4-1.73c-.1-.29-.18-.56-.29-.85l-.4-.87c-.07-.16-.14-.27-.19-.37l-.18-.31-.17-.3,0,0-.09-.13,0-.09-.11-.16c-.3-.43-.58-.87-.93-1.28a14.32,14.32,0,0,0-2.25-2.29,13.73,13.73,0,0,0-5.41-2.5,26.86,26.86,0,0,0-4.58-.59c-1.33-.07-2.45-.08-3.38-.07h-.43s-.68,0-1.64,0h-.77c-.1,0-.2,0-.3,0-1.2.05-2.76.14-4.61.18-2.13,0-4.61.15-7.27.16L45,50.63l-8.33-.06c-2.59,0-5-.12-7.1-.16H29.4c-1.75,0-3.24-.12-4.41-.18l-.14,0-.23,0Z"/><path class="cls-3" d="M8.28,53.43v6.72l.18-.26.2-.3,0,0h0l.1-.12c.26-.31.51-.64.78-.91a10.06,10.06,0,0,1,1.63-1.43,8.86,8.86,0,0,1,3.6-1.28c.46-.07.91-.11,1.37-.14V50.41a23.31,23.31,0,0,0-2.35.41,13.73,13.73,0,0,0-5.41,2.5Z"/><path class="cls-3" d="M22,66.38a6.63,6.63,0,0,0-1.55-4.59v9l.23-.33.06-.08c.08-.11,0-.07.07-.12l.09-.15.17-.3.19-.38A7.92,7.92,0,0,0,22,66.38Z"/><path class="cls-3" d="M15.73,61.16a2.16,2.16,0,0,1,.44,0V59.83h-.23a2.57,2.57,0,0,0-.4.06,3.91,3.91,0,0,0-2.91,2.15,4.53,4.53,0,0,0-.39,2.14h.9a3.67,3.67,0,0,1,.42-1.67A2.77,2.77,0,0,1,15.73,61.16Z"/><path class="cls-3" d="M8.28,68.24v4.62a8.56,8.56,0,0,0,1.32.74,9,9,0,0,0,6.57.32V71.13a6.19,6.19,0,0,1-2.89.41,6,6,0,0,1-2.28-.7,7.41,7.41,0,0,1-2-1.57A8.55,8.55,0,0,1,8.28,68.24Z"/><path class="cls-3" d="M3.37,65.31A10.06,10.06,0,0,0,4,67.46v-8.1c-.08.22-.15.43-.22.65a11.15,11.15,0,0,0-.4,1.73A11,11,0,0,0,3.37,65.31Z"/><path class="cls-3" d="M43.11,102.24a6.57,6.57,0,0,0,3.31,5.19,5.27,5.27,0,0,0,2,.59h0V94.79l0,0-.42.14-.34.14-.34.15c-.23.12-.45.24-.67.38a8.1,8.1,0,0,0-1.39,1.22c-.24.23-.45.52-.68.79l-.08.1,0,0h0l-.16.24-.17.25a1.07,1.07,0,0,0-.14.22c-.06.12-.12.24-.19.36a4.48,4.48,0,0,0-.19.44,6.2,6.2,0,0,0-.44,2.95Zm0,0a6.57,6.57,0,0,0,3.31,5.19,5.27,5.27,0,0,0,2,.59h0V94.79l0,0-.42.14-.34.14-.34.15c-.23.12-.45.24-.67.38a8.1,8.1,0,0,0-1.39,1.22c-.24.23-.45.52-.68.79l-.08.1,0,0h0l-.16.24-.17.25a1.07,1.07,0,0,0-.14.22c-.06.12-.12.24-.19.36a4.48,4.48,0,0,0-.19.44,6.2,6.2,0,0,0-.44,2.95Zm0,0a6.57,6.57,0,0,0,3.31,5.19,5.27,5.27,0,0,0,2,.59h0V94.79l0,0-.42.14-.34.14-.34.15c-.23.12-.45.24-.67.38a8.1,8.1,0,0,0-1.39,1.22c-.24.23-.45.52-.68.79l-.08.1,0,0h0l-.16.24-.17.25a1.07,1.07,0,0,0-.14.22c-.06.12-.12.24-.19.36a4.48,4.48,0,0,0-.19.44,6.2,6.2,0,0,0-.44,2.95Zm0,0a6.57,6.57,0,0,0,3.31,5.19,5.27,5.27,0,0,0,2,.59h0V94.79l0,0-.42.14-.34.14-.34.15c-.23.12-.45.24-.67.38a8.1,8.1,0,0,0-1.39,1.22c-.24.23-.45.52-.68.79l-.08.1,0,0h0l-.16.24-.17.25a1.07,1.07,0,0,0-.14.22c-.06.12-.12.24-.19.36a4.48,4.48,0,0,0-.19.44,6.2,6.2,0,0,0-.44,2.95Zm0,0a6.57,6.57,0,0,0,3.31,5.19,5.27,5.27,0,0,0,2,.59h0V94.79l0,0-.42.14-.34.14-.34.15c-.23.12-.45.24-.67.38a8.1,8.1,0,0,0-1.39,1.22c-.24.23-.45.52-.68.79l-.08.1,0,0h0l-.16.24-.17.25a1.07,1.07,0,0,0-.14.22c-.06.12-.12.24-.19.36a4.48,4.48,0,0,0-.19.44,6.2,6.2,0,0,0-.44,2.95Zm0,0a6.57,6.57,0,0,0,3.31,5.19,5.27,5.27,0,0,0,2,.59h0V94.79l0,0-.42.14-.34.14-.34.15c-.23.12-.45.24-.67.38a8.1,8.1,0,0,0-1.39,1.22c-.24.23-.45.52-.68.79l-.08.1,0,0h0l-.16.24-.17.25a1.07,1.07,0,0,0-.14.22c-.06.12-.12.24-.19.36a4.48,4.48,0,0,0-.19.44,6.2,6.2,0,0,0-.44,2.95Zm0,0a6.57,6.57,0,0,0,3.31,5.19,5.27,5.27,0,0,0,2,.59h0V94.79l0,0-.42.14-.34.14-.34.15c-.23.12-.45.24-.67.38a8.1,8.1,0,0,0-1.39,1.22c-.24.23-.45.52-.68.79l-.08.1,0,0h0l-.16.24-.17.25a1.07,1.07,0,0,0-.14.22c-.06.12-.12.24-.19.36a4.48,4.48,0,0,0-.19.44,6.2,6.2,0,0,0-.44,2.95Zm0,0a6.57,6.57,0,0,0,3.31,5.19,5.27,5.27,0,0,0,2,.59h0V94.79l0,0-.42.14-.34.14-.34.15c-.23.12-.45.24-.67.38a8.1,8.1,0,0,0-1.39,1.22c-.24.23-.45.52-.68.79l-.08.1,0,0h0l-.16.24-.17.25a1.07,1.07,0,0,0-.14.22c-.06.12-.12.24-.19.36a4.48,4.48,0,0,0-.19.44,6.2,6.2,0,0,0-.44,2.95Zm0,0a6.57,6.57,0,0,0,3.31,5.19,5.27,5.27,0,0,0,2,.59h0V94.79l0,0-.42.14-.34.14-.34.15c-.23.12-.45.24-.67.38a8.1,8.1,0,0,0-1.39,1.22c-.24.23-.45.52-.68.79l-.08.1,0,0h0l-.16.24-.17.25a1.07,1.07,0,0,0-.14.22c-.06.12-.12.24-.19.36a4.48,4.48,0,0,0-.19.44,6.2,6.2,0,0,0-.44,2.95Zm0,0a6.57,6.57,0,0,0,3.31,5.19,5.27,5.27,0,0,0,2,.59h0V94.79l0,0-.42.14-.34.14-.34.15c-.23.12-.45.24-.67.38a8.1,8.1,0,0,0-1.39,1.22c-.24.23-.45.52-.68.79l-.08.1,0,0h0l-.16.24-.17.25a1.07,1.07,0,0,0-.14.22c-.06.12-.12.24-.19.36a4.48,4.48,0,0,0-.19.44,6.2,6.2,0,0,0-.44,2.95Zm0,0a6.57,6.57,0,0,0,3.31,5.19,5.27,5.27,0,0,0,2,.59h0V94.79l0,0-.42.14-.34.14-.34.15c-.23.12-.45.24-.67.38a8.1,8.1,0,0,0-1.39,1.22c-.24.23-.45.52-.68.79l-.08.1,0,0h0l-.16.24-.17.25a1.07,1.07,0,0,0-.14.22c-.06.12-.12.24-.19.36a4.48,4.48,0,0,0-.19.44,6.2,6.2,0,0,0-.44,2.95ZM20.49,74.66v53.18H27.7V75.9h3.67v51.94h6.69V75.9h3.66v51.94h6.69V75.9h3.67v51.94h6.69V75.9h3.67v51.94h7.7V75a10.43,10.43,0,0,1-1.27-1,8.54,8.54,0,0,1-.78-.8,7,7,0,0,1-.68-.86l-.35-.48a3.28,3.28,0,0,1-.2-.34l-.27-.47-.25-.51a10.54,10.54,0,0,1-1-4,9.25,9.25,0,0,1,3-7.27,7.48,7.48,0,0,1,.87-.71l-3.1.28a2.06,2.06,0,0,1-.35,0L64.35,59c-1,.11-2.19.24-3.62.31l-2.32.12c-1.52.09-3.23.19-5,.22l-1.22,0c-1,0-2,.05-2.92.05l-4.28,0-4.23,0c-.93,0-1.85,0-2.75-.06l-1.37,0c-1,0-2-.06-2.91-.11l-4.15-.22-.3,0c-1.46-.06-2.76-.18-3.8-.28L24,58.85c-.5-.05-1-.11-1.46-.18L21,58.53a6.5,6.5,0,0,1,.87.7,9.25,9.25,0,0,1,2.95,7.27,10.5,10.5,0,0,1-1,4.1l-.22.46-.28.47a2.3,2.3,0,0,1-.24.4l-.25.35a7.53,7.53,0,0,1-.74.93,7.41,7.41,0,0,1-.77.8A9.59,9.59,0,0,1,20.49,74.66Zm22.62,27.58a6.57,6.57,0,0,0,3.31,5.19,5.27,5.27,0,0,0,2,.59h0V94.79l0,0-.42.14-.34.14-.34.15c-.23.12-.45.24-.67.38a8.1,8.1,0,0,0-1.39,1.22c-.24.23-.45.52-.68.79l-.08.1,0,0h0l-.16.24-.17.25a1.07,1.07,0,0,0-.14.22c-.06.12-.12.24-.19.36a4.48,4.48,0,0,0-.19.44,6.2,6.2,0,0,0-.44,2.95Zm0,0a6.57,6.57,0,0,0,3.31,5.19,5.27,5.27,0,0,0,2,.59h0V94.79l0,0-.42.14-.34.14-.34.15c-.23.12-.45.24-.67.38a8.1,8.1,0,0,0-1.39,1.22c-.24.23-.45.52-.68.79l-.08.1,0,0h0l-.16.24-.17.25a1.07,1.07,0,0,0-.14.22c-.06.12-.12.24-.19.36a4.48,4.48,0,0,0-.19.44,6.2,6.2,0,0,0-.44,2.95Zm0,0a6.57,6.57,0,0,0,3.31,5.19,5.27,5.27,0,0,0,2,.59h0V94.79l0,0-.42.14-.34.14-.34.15c-.23.12-.45.24-.67.38a8.1,8.1,0,0,0-1.39,1.22c-.24.23-.45.52-.68.79l-.08.1,0,0h0l-.16.24-.17.25a1.07,1.07,0,0,0-.14.22c-.06.12-.12.24-.19.36a4.48,4.48,0,0,0-.19.44,6.2,6.2,0,0,0-.44,2.95Zm0,0a6.57,6.57,0,0,0,3.31,5.19,5.27,5.27,0,0,0,2,.59h0V94.79l0,0-.42.14-.34.14-.34.15c-.23.12-.45.24-.67.38a8.1,8.1,0,0,0-1.39,1.22c-.24.23-.45.52-.68.79l-.08.1,0,0h0l-.16.24-.17.25a1.07,1.07,0,0,0-.14.22c-.06.12-.12.24-.19.36a4.48,4.48,0,0,0-.19.44,6.2,6.2,0,0,0-.44,2.95Zm0,0a6.57,6.57,0,0,0,3.31,5.19,5.27,5.27,0,0,0,2,.59h0V94.79l0,0-.42.14-.34.14-.34.15c-.23.12-.45.24-.67.38a8.1,8.1,0,0,0-1.39,1.22c-.24.23-.45.52-.68.79l-.08.1,0,0h0l-.16.24-.17.25a1.07,1.07,0,0,0-.14.22c-.06.12-.12.24-.19.36a4.48,4.48,0,0,0-.19.44,6.2,6.2,0,0,0-.44,2.95Zm0,0a6.57,6.57,0,0,0,3.31,5.19,5.27,5.27,0,0,0,2,.59h0V94.79l0,0-.42.14-.34.14-.34.15c-.23.12-.45.24-.67.38a8.1,8.1,0,0,0-1.39,1.22c-.24.23-.45.52-.68.79l-.08.1,0,0h0l-.16.24-.17.25a1.07,1.07,0,0,0-.14.22c-.06.12-.12.24-.19.36a4.48,4.48,0,0,0-.19.44,6.2,6.2,0,0,0-.44,2.95Zm0,0a6.57,6.57,0,0,0,3.31,5.19,5.27,5.27,0,0,0,2,.59h0V94.79l0,0-.42.14-.34.14-.34.15c-.23.12-.45.24-.67.38a8.1,8.1,0,0,0-1.39,1.22c-.24.23-.45.52-.68.79l-.08.1,0,0h0l-.16.24-.17.25a1.07,1.07,0,0,0-.14.22c-.06.12-.12.24-.19.36a4.48,4.48,0,0,0-.19.44,6.2,6.2,0,0,0-.44,2.95Zm0,0a6.57,6.57,0,0,0,3.31,5.19,5.27,5.27,0,0,0,2,.59h0V94.79l0,0-.42.14-.34.14-.34.15c-.23.12-.45.24-.67.38a8.1,8.1,0,0,0-1.39,1.22c-.24.23-.45.52-.68.79l-.08.1,0,0h0l-.16.24-.17.25a1.07,1.07,0,0,0-.14.22c-.06.12-.12.24-.19.36a4.48,4.48,0,0,0-.19.44,6.2,6.2,0,0,0-.44,2.95Zm0,0a6.57,6.57,0,0,0,3.31,5.19,5.27,5.27,0,0,0,2,.59h0V94.79l0,0-.42.14-.34.14-.34.15c-.23.12-.45.24-.67.38a8.1,8.1,0,0,0-1.39,1.22c-.24.23-.45.52-.68.79l-.08.1,0,0h0l-.16.24-.17.25a1.07,1.07,0,0,0-.14.22c-.06.12-.12.24-.19.36a4.48,4.48,0,0,0-.19.44,6.2,6.2,0,0,0-.44,2.95Zm0,0a6.57,6.57,0,0,0,3.31,5.19,5.27,5.27,0,0,0,2,.59h0V94.79l0,0-.42.14-.34.14-.34.15c-.23.12-.45.24-.67.38a8.1,8.1,0,0,0-1.39,1.22c-.24.23-.45.52-.68.79l-.08.1,0,0h0l-.16.24-.17.25a1.07,1.07,0,0,0-.14.22c-.06.12-.12.24-.19.36a4.48,4.48,0,0,0-.19.44,6.2,6.2,0,0,0-.44,2.95Zm0,0a6.57,6.57,0,0,0,3.31,5.19,5.27,5.27,0,0,0,2,.59h0V94.79l0,0-.42.14-.34.14-.34.15c-.23.12-.45.24-.67.38a8.1,8.1,0,0,0-1.39,1.22c-.24.23-.45.52-.68.79l-.08.1,0,0h0l-.16.24-.17.25a1.07,1.07,0,0,0-.14.22c-.06.12-.12.24-.19.36a4.48,4.48,0,0,0-.19.44,6.2,6.2,0,0,0-.44,2.95Z"/><path class="cls-3" d="M81.46,59.56l0,0,0,0Z"/><path class="cls-4" d="M0,.56V8.05L4.92,8C6.57,8,8.19,8,9.76,7.91c3.13-.07,6.06-.3,8.57-.41s4.42-.42,5.89-.52h.3l2.59-.23h0l.64-.06c1-.09,2.23-.17,3.59-.21a27.19,27.19,0,0,1,4.36.2A10.32,10.32,0,0,1,40,8.18a12.2,12.2,0,0,1,1.93,1.68c.32.32.61.71.92,1.08l.11.12,0,0v0l0,0,0,0,.2.3.24.34a3.18,3.18,0,0,1,.18.31c.08.16.17.33.27.49s.17.4.26.6a8.07,8.07,0,0,1,.41,1.29,8.26,8.26,0,0,1,.19,2.77,9,9,0,0,1-2.24,5.26,8.8,8.8,0,0,1-2.31,1.86,7,7,0,0,1-2.69.82,7.41,7.41,0,0,1-5.37-1.6,4.69,4.69,0,0,1-.53-.47,4.61,4.61,0,0,1-.48-.51l-.23-.27,0,0s0-.06-.05-.06l-.11-.17-.23-.34-.16-.28A6.87,6.87,0,0,1,29.48,19a5.62,5.62,0,0,1,1.41-4.54A4.34,4.34,0,0,1,34.61,13a3.21,3.21,0,0,1,2.56,1.61,4.34,4.34,0,0,1,.5,2.06v0h1A5.1,5.1,0,0,0,38.26,14a4.59,4.59,0,0,0-3.42-2.54A6.09,6.09,0,0,0,29.6,13.1a7.71,7.71,0,0,0-2.43,6A9.26,9.26,0,0,0,28,22.69l.22.45.21.35.1.18.08.14.07.1.28.38a5.33,5.33,0,0,0,.6.75,4.92,4.92,0,0,0,.67.7,10.62,10.62,0,0,0,11.58,1.91,12.53,12.53,0,0,0,3.46-2.37,13.51,13.51,0,0,0,3.93-11.62,14,14,0,0,0-.47-2c-.12-.34-.21-.66-.35-1l-.47-1a3.35,3.35,0,0,0-.22-.43l-.21-.37-.2-.36,0,0-.1-.16-.06-.1L47,7.94c-.36-.51-.69-1-1.1-1.51a16.9,16.9,0,0,0-2.65-2.7A16.22,16.22,0,0,0,36.87.78,31.37,31.37,0,0,0,31.46.09C29.9,0,28.58,0,27.48,0H27S26.17,0,25,0h-.91c-.12,0-.24,0-.36,0-1.41.07-3.25.18-5.44.22-2.51,0-5.44.17-8.57.19Z"/><path class="cls-4" d="M12.24,64.19h.9a3.67,3.67,0,0,1,.42-1.67,2.77,2.77,0,0,1,2.17-1.36,2.16,2.16,0,0,1,.44,0V59.83h-.23a2.57,2.57,0,0,0-.4.06,3.91,3.91,0,0,0-2.91,2.15A4.53,4.53,0,0,0,12.24,64.19Zm0,0h.9a3.67,3.67,0,0,1,.42-1.67,2.77,2.77,0,0,1,2.17-1.36,2.16,2.16,0,0,1,.44,0V59.83h-.23a2.57,2.57,0,0,0-.4.06,3.91,3.91,0,0,0-2.91,2.15A4.53,4.53,0,0,0,12.24,64.19Zm0,0h.9a3.67,3.67,0,0,1,.42-1.67,2.77,2.77,0,0,1,2.17-1.36,2.16,2.16,0,0,1,.44,0V59.83h-.23a2.57,2.57,0,0,0-.4.06,3.91,3.91,0,0,0-2.91,2.15A4.53,4.53,0,0,0,12.24,64.19Zm0,0h.9a3.67,3.67,0,0,1,.42-1.67,2.77,2.77,0,0,1,2.17-1.36,2.16,2.16,0,0,1,.44,0V59.83h-.23a2.57,2.57,0,0,0-.4.06,3.91,3.91,0,0,0-2.91,2.15A4.53,4.53,0,0,0,12.24,64.19Zm0,0h.9a3.67,3.67,0,0,1,.42-1.67,2.77,2.77,0,0,1,2.17-1.36,2.16,2.16,0,0,1,.44,0V59.83h-.23a2.57,2.57,0,0,0-.4.06,3.91,3.91,0,0,0-2.91,2.15A4.53,4.53,0,0,0,12.24,64.19Zm0,0h.9a3.67,3.67,0,0,1,.42-1.67,2.77,2.77,0,0,1,2.17-1.36,2.16,2.16,0,0,1,.44,0V59.83h-.23a2.57,2.57,0,0,0-.4.06,3.91,3.91,0,0,0-2.91,2.15A4.53,4.53,0,0,0,12.24,64.19Zm0,0h.9a3.67,3.67,0,0,1,.42-1.67,2.77,2.77,0,0,1,2.17-1.36,2.16,2.16,0,0,1,.44,0V59.83h-.23a2.57,2.57,0,0,0-.4.06,3.91,3.91,0,0,0-2.91,2.15A4.53,4.53,0,0,0,12.24,64.19ZM0,11.3V127.84H4V30.36H8.28v97.48h7.89V30.36h4.32v97.48h9.08V29.33a14.39,14.39,0,0,1-1.49-1.19,9.34,9.34,0,0,1-.92-.95,10.81,10.81,0,0,1-.81-1l-.4-.57a2.3,2.3,0,0,1-.24-.4l-.32-.56-.29-.59a12.27,12.27,0,0,1-1.17-4.78,10.88,10.88,0,0,1,3.48-8.58,9,9,0,0,1,1-.83l-3.65.33-.41,0c-.49,0-1,.1-1.62.17-1.16.12-2.59.28-4.27.35l-2.74.15c-1.79.1-3.81.22-5.91.26l-1.44,0c-1.14,0-2.3.07-3.44.07ZM12.24,64.19h.9a3.67,3.67,0,0,1,.42-1.67,2.77,2.77,0,0,1,2.17-1.36,2.16,2.16,0,0,1,.44,0V59.83h-.23a2.57,2.57,0,0,0-.4.06,3.91,3.91,0,0,0-2.91,2.15A4.53,4.53,0,0,0,12.24,64.19Zm0,0h.9a3.67,3.67,0,0,1,.42-1.67,2.77,2.77,0,0,1,2.17-1.36,2.16,2.16,0,0,1,.44,0V59.83h-.23a2.57,2.57,0,0,0-.4.06,3.91,3.91,0,0,0-2.91,2.15A4.53,4.53,0,0,0,12.24,64.19Zm0,0h.9a3.67,3.67,0,0,1,.42-1.67,2.77,2.77,0,0,1,2.17-1.36,2.16,2.16,0,0,1,.44,0V59.83h-.23a2.57,2.57,0,0,0-.4.06,3.91,3.91,0,0,0-2.91,2.15A4.53,4.53,0,0,0,12.24,64.19Zm0,0h.9a3.67,3.67,0,0,1,.42-1.67,2.77,2.77,0,0,1,2.17-1.36,2.16,2.16,0,0,1,.44,0V59.83h-.23a2.57,2.57,0,0,0-.4.06,3.91,3.91,0,0,0-2.91,2.15A4.53,4.53,0,0,0,12.24,64.19Zm0,0h.9a3.67,3.67,0,0,1,.42-1.67,2.77,2.77,0,0,1,2.17-1.36,2.16,2.16,0,0,1,.44,0V59.83h-.23a2.57,2.57,0,0,0-.4.06,3.91,3.91,0,0,0-2.91,2.15A4.53,4.53,0,0,0,12.24,64.19Zm0,0h.9a3.67,3.67,0,0,1,.42-1.67,2.77,2.77,0,0,1,2.17-1.36,2.16,2.16,0,0,1,.44,0V59.83h-.23a2.57,2.57,0,0,0-.4.06,3.91,3.91,0,0,0-2.91,2.15A4.53,4.53,0,0,0,12.24,64.19Zm0,0h.9a3.67,3.67,0,0,1,.42-1.67,2.77,2.77,0,0,1,2.17-1.36,2.16,2.16,0,0,1,.44,0V59.83h-.23a2.57,2.57,0,0,0-.4.06,3.91,3.91,0,0,0-2.91,2.15A4.53,4.53,0,0,0,12.24,64.19Zm0,0h.9a3.67,3.67,0,0,1,.42-1.67,2.77,2.77,0,0,1,2.17-1.36,2.16,2.16,0,0,1,.44,0V59.83h-.23a2.57,2.57,0,0,0-.4.06,3.91,3.91,0,0,0-2.91,2.15A4.53,4.53,0,0,0,12.24,64.19Z"/><path class="cls-4" d="M42.93,11.09l0,0,0,0Z"/><path class="cls-5" d="M49.19,17.88a13.28,13.28,0,0,0,.05-4.22,14,14,0,0,0-.47-2c-.12-.34-.21-.66-.35-1l-.47-1a3.35,3.35,0,0,0-.22-.43l-.21-.37-.2-.36,0,0-.1-.16-.06-.1L47,7.94c-.36-.51-.69-1-1.1-1.51a16.9,16.9,0,0,0-2.65-2.7A16.22,16.22,0,0,0,36.87.78,31.37,31.37,0,0,0,31.46.09C29.9,0,28.58,0,27.48,0H27S26.17,0,25,0h-.91c-.12,0-.24,0-.36,0-1.41.07-3.25.18-5.44.22-2.51,0-5.44.17-8.57.19L0,.56V8.05L4.92,8C6.57,8,8.19,8,9.76,7.91c3.13-.07,6.06-.3,8.57-.41s4.42-.42,5.89-.52h.3l2.59-.23h0l.64-.06c1-.09,2.23-.17,3.59-.21a27.19,27.19,0,0,1,4.36.2A10.32,10.32,0,0,1,40,8.18a12.2,12.2,0,0,1,1.93,1.68c.32.32.61.71.92,1.08l.11.12,0,0v0l0,0,0,0,.2.3.24.34a3.18,3.18,0,0,1,.18.31c.08.16.17.33.27.49s.17.4.26.6a8.07,8.07,0,0,1,.41,1.29,8.26,8.26,0,0,1,.19,2.77,9,9,0,0,1-2.24,5.26,8.8,8.8,0,0,1-2.31,1.86,7,7,0,0,1-2.69.82,7.41,7.41,0,0,1-5.37-1.6,4.69,4.69,0,0,1-.53-.47,4.61,4.61,0,0,1-.48-.51l-.23-.27,0,0s0-.06-.05-.06l-.11-.17-.23-.34-.16-.28A6.87,6.87,0,0,1,29.48,19a5.62,5.62,0,0,1,1.41-4.54A4.34,4.34,0,0,1,34.61,13a3.21,3.21,0,0,1,2.56,1.61,4.34,4.34,0,0,1,.5,2.06v0h1A5.1,5.1,0,0,0,38.26,14a4.59,4.59,0,0,0-3.42-2.54A6.09,6.09,0,0,0,29.6,13.1a7.71,7.71,0,0,0-2.43,6A9.26,9.26,0,0,0,28,22.69l.22.45.21.35.1.18.08.14.07.1.28.38a5.33,5.33,0,0,0,.6.75,4.92,4.92,0,0,0,.67.7,10.62,10.62,0,0,0,11.58,1.91,12.53,12.53,0,0,0,3.46-2.37A13.34,13.34,0,0,0,49.19,17.88Z"/><path class="cls-5" d="M0,11.3V127.84H4V30.36H8.28v97.48h7.89V30.36h4.32v97.48h9.08V75.9h1.8v51.94h6.69V75.9h3.66v51.94h6.69V75.9h3.67v51.94h6.69V75.9h3.67v51.94h7.7V111.76H72.8v16.08h5.74V111.76h3.15v16.08h5.74V111.76h3.15v16.08h6.61V111a10.14,10.14,0,0,1-1.09-.87,7.44,7.44,0,0,1-.67-.69,7.58,7.58,0,0,1-.59-.73l-.29-.42a1.6,1.6,0,0,1-.17-.29l-.23-.4-.22-.43a9,9,0,0,1-.85-3.49,7.92,7.92,0,0,1,2.53-6.24,7,7,0,0,1,.75-.6l-2.66.24-.3,0c-.35,0-.74.07-1.18.11-.84.1-1.88.21-3.11.26l-2,.11c-1.3.08-2.77.16-4.3.19l-1,0c-.83,0-1.67,0-2.5,0l-3.68,0-3.63,0-1.82,0V95.46l1.84,0,3.63,0,3.64,0c1.2,0,2.37,0,3.52-.08,2.28,0,4.41-.21,6.24-.29s3.22-.31,4.28-.38h.22l1.89-.17.47,0c.73-.06,1.62-.12,2.62-.15a19.2,19.2,0,0,1,3.17.14,7.58,7.58,0,0,1,3.08,1.11,7.79,7.79,0,0,1,1.4,1.22,8.7,8.7,0,0,1,.67.79l.09.09h0v0l0,0h0l.16.23.17.25a1.51,1.51,0,0,1,.13.22c.06.12.13.24.2.36a4.48,4.48,0,0,1,.19.44,5.93,5.93,0,0,1,.3.93,6.21,6.21,0,0,1,.14,2,6.65,6.65,0,0,1-1.63,3.83,6.53,6.53,0,0,1-1.69,1.36,5.22,5.22,0,0,1-2,.59,5.37,5.37,0,0,1-3.91-1.16,9.43,9.43,0,0,1-.74-.72l-.16-.2,0,0h0l0,0-.09-.12-.17-.25-.11-.2a4.88,4.88,0,0,1-.6-1.83,4.1,4.1,0,0,1,1-3.3,3.17,3.17,0,0,1,2.7-1.06,2.37,2.37,0,0,1,1.87,1.17,3.11,3.11,0,0,1,.36,1.5v0h.77a3.86,3.86,0,0,0-.34-1.93A3.33,3.33,0,0,0,101,98a4.39,4.39,0,0,0-3.81,1.17,5.57,5.57,0,0,0-1.77,4.39,6.67,6.67,0,0,0,.64,2.59l.16.32.14.26.08.13a.44.44,0,0,0,.06.1l0,.07.2.28a3.93,3.93,0,0,0,.44.55,4.7,4.7,0,0,0,.49.51,7.66,7.66,0,0,0,5.38,2.07,7.84,7.84,0,0,0,3-.68,9.23,9.23,0,0,0,2.52-1.72,9.7,9.7,0,0,0,2.83-5.39,10.24,10.24,0,0,0,.14-1.66,9.57,9.57,0,0,0-.11-1.41,9.21,9.21,0,0,0-.34-1.49c-.08-.24-.15-.48-.25-.72l-.34-.75a2.24,2.24,0,0,0-.17-.32l-.15-.26-.15-.27,0,0-.07-.11,0-.07-.1-.14a12.34,12.34,0,0,0-.8-1.1,10.86,10.86,0,0,0-6.57-4.12,23.42,23.42,0,0,0-3.94-.5c-1.14-.06-2.09-.07-2.89-.07H95.3s-.59,0-1.41,0h-.66l-.26,0c-1,0-2.37.13-4,.16-1.83,0-4,.13-6.24.14l-7.16,0-5.47,0V75a10.43,10.43,0,0,1-1.27-1,8.54,8.54,0,0,1-.78-.8,7,7,0,0,1-.68-.86l-.35-.48a3.28,3.28,0,0,1-.2-.34l-.27-.47-.25-.51a10.54,10.54,0,0,1-1-4,9.25,9.25,0,0,1,3-7.27,7.48,7.48,0,0,1,.87-.71l-3.1.28a2.06,2.06,0,0,1-.35,0L64.35,59c-1,.11-2.19.24-3.62.31l-2.32.12c-1.52.09-3.23.19-5,.22l-1.22,0c-1,0-2,.05-2.92.05l-4.28,0-4.23,0c-.93,0-1.85,0-2.75-.06l-1.37,0c-1,0-2-.06-2.91-.11l-4.15-.22V56.52l3.26.16c1.22.06,2.51.15,3.84.17s2.7.09,4.1.1L45,57l4.24,0c1.39,0,2.77-.06,4.1-.09,2.66-.06,5.14-.25,7.27-.34s3.75-.36,5-.44l.22,0h0l2.2-.2h0l.54,0c.85-.07,1.89-.14,3.05-.17a22.24,22.24,0,0,1,3.69.17,8.77,8.77,0,0,1,3.59,1.28,9.28,9.28,0,0,1,1.63,1.43c.28.27.52.6.79.91l.09.11,0,0,0,0h0l.18.27.2.29a1.6,1.6,0,0,1,.15.26c.07.14.15.28.23.42s.15.34.23.51a6.29,6.29,0,0,1,.34,1.09A7.36,7.36,0,0,1,83,64.81a7.78,7.78,0,0,1-1.91,4.46,7.1,7.1,0,0,1-2,1.57,5.91,5.91,0,0,1-2.27.7,6.28,6.28,0,0,1-4.55-1.36,2.86,2.86,0,0,1-.45-.4,2.78,2.78,0,0,1-.41-.43l-.2-.23,0-.06c0,.07,0,0,0,0l-.1-.15-.19-.29-.14-.23a5.86,5.86,0,0,1-.69-2.13,4.78,4.78,0,0,1,1.19-3.85,3.69,3.69,0,0,1,3.16-1.23,2.77,2.77,0,0,1,2.17,1.36A3.76,3.76,0,0,1,77,64.27v0h.89a4.4,4.4,0,0,0-.39-2.24,3.87,3.87,0,0,0-2.9-2.15,5.16,5.16,0,0,0-4.44,1.36,6.51,6.51,0,0,0-2.06,5.12,7.74,7.74,0,0,0,.74,3l.19.38.17.3.08.15a.7.7,0,0,0,.08.12l0,.08.24.33a6.12,6.12,0,0,0,.5.64,6.45,6.45,0,0,0,.58.59A8.94,8.94,0,0,0,77,74.39a9.13,9.13,0,0,0,3.54-.79,10.74,10.74,0,0,0,2.94-2,11.45,11.45,0,0,0,3.33-9.85,11.15,11.15,0,0,0-.4-1.73c-.1-.29-.18-.56-.29-.85l-.4-.87c-.07-.16-.14-.27-.19-.37l-.18-.31-.17-.3,0,0-.09-.13,0-.09-.11-.16c-.3-.43-.58-.87-.93-1.28a14.32,14.32,0,0,0-2.25-2.29,13.73,13.73,0,0,0-5.41-2.5,26.86,26.86,0,0,0-4.58-.59c-1.33-.07-2.45-.08-3.38-.07h-.43s-.68,0-1.64,0h-.77c-.1,0-.2,0-.3,0-1.2.05-2.76.14-4.61.18-2.13,0-4.61.15-7.27.16L45,50.63l-8.33-.06c-2.59,0-5-.12-7.1-.16V29.33a14.39,14.39,0,0,1-1.49-1.19,9.34,9.34,0,0,1-.92-.95,10.81,10.81,0,0,1-.81-1l-.4-.57a2.3,2.3,0,0,1-.24-.4l-.32-.56-.29-.59a12.27,12.27,0,0,1-1.17-4.78,10.88,10.88,0,0,1,3.48-8.58,9,9,0,0,1,1-.83l-3.65.33-.41,0c-.49,0-1,.1-1.62.17-1.16.12-2.59.28-4.27.35l-2.74.15c-1.79.1-3.81.22-5.91.26l-1.44,0c-1.14,0-2.3.07-3.44.07Z"/></g></g></svg>